<svg id="Layer_1" data-name="Layer 1" xmlns="http://www.w3.org/2000/svg" xmlns:xlink="http://www.w3.org/1999/xlink" viewBox="0 0 205.91 297.7"><defs><style>.cls-1,.cls-7{fill:none;}.cls-2{fill:#d9b465;}.cls-3{fill:#c2a769;}.cls-4{fill:#f5d482;}.cls-5{fill:#8b7111;}.cls-6{fill:#fdf8ed;}.cls-7{stroke:#8b7111;stroke-width:0.39px;}.cls-8{fill:#fff;}.cls-9{fill:url(#Embossed_Leaves_Color);}</style><pattern id="Embossed_Leaves_Color" data-name="Embossed Leaves Color" width="89.06" height="89.06" patternTransform="translate(62.9 65.75) scale(0.74)" patternUnits="userSpaceOnUse" viewBox="0 0 89.06 89.06"><rect class="cls-1" width="89.06" height="89.06"/><path class="cls-2" d="M24.58,67.22a30.24,30.24,0,0,0,39.9,0l19.9,19.91H4.68Z"/><path class="cls-1" d="M24.38,67.43v0l.2-.21a30.24,30.24,0,0,0,39.9,0l.07.07v0L84.38,87.13h0l-3.81-1.59,3.81,1.59H4.73L7.42,86,4.73,87.13H4.68Z"/><path class="cls-3" d="M4.68,87.13h.05L0,89.06,24.38,64.69v2.74Z"/><path class="cls-4" d="M4.73,87.13H84.37L89,89.06H0Z"/><path class="cls-3" d="M84.38,87.13,64.55,67.29V64.55L89.06,89.06h0l-4.65-1.93Z"/><path class="cls-4" d="M64.48,67.22a30.24,30.24,0,0,1-39.9,0l-.2.21V64.69l.13-.14a28.32,28.32,0,0,0,40,0v2.74Z"/><path class="cls-5" d="M50.08,80.41a4.73,4.73,0,0,1,.43-.31c-.21-.29-.46-.6-.74-.92A3.4,3.4,0,0,1,47,75.49,4.39,4.39,0,0,1,50.15,79a9.8,9.8,0,0,1,.68.86,6.34,6.34,0,0,1,.82-.43,3.42,3.42,0,0,1,.22-4.73A4.37,4.37,0,0,1,52,79.3a11.91,11.91,0,0,1,2.25-.59,4,4,0,0,1,2.05-5.06,5,5,0,0,1-1.47,5,18.15,18.15,0,0,1,3.24-.08c-.29-.84-1.26-4.39,2.32-6.07a5.88,5.88,0,0,1-2,6.09c.58,0,1.18.11,1.78.2s1.22.21,1.73.33c-.06-.95,0-4.54,3.81-5.23a5.87,5.87,0,0,1-3.46,5.31,10.21,10.21,0,0,1,3,1.15c.31-.67,1.84-3.51,5.12-2.39a5.11,5.11,0,0,1-4.89,2.55A6.87,6.87,0,0,1,66.92,82a9.38,9.38,0,0,0,.79.94l.1.08a3,3,0,0,1,4-1,3.77,3.77,0,0,1-3.36,1.36,5.85,5.85,0,0,0,3.45.28,2.7,2.7,0,0,1,3.34,1.19,3.59,3.59,0,0,1-3.7-.73c-1,.13-2.89.22-4.06-1h0a3.64,3.64,0,0,1-.05,2.83s-2.17-1.66-.8-3.83a5.66,5.66,0,0,0-3-2.24,3.89,3.89,0,0,1,1.35,3.7s-2.75-1.2-1.83-3.87a20.45,20.45,0,0,0-2.71-.61A3.89,3.89,0,0,1,61.85,83S59.11,81.8,60,79.14a21.51,21.51,0,0,0-3.51-.24,3.93,3.93,0,0,1,2.18,3.52s-2.93-.7-2.48-3.51a14.39,14.39,0,0,0-2.92.4,4.39,4.39,0,0,1,3.05,3.31s-3.31-.08-3.56-3.17a7.68,7.68,0,0,0-1.74.76,4.81,4.81,0,0,1,.88,2.58,2.63,2.63,0,0,1-.31,1.3,1.7,1.7,0,0,1-1.84.9,1.64,1.64,0,0,1-1.06-1.75A3.62,3.62,0,0,1,50.08,80.41Zm-.21,4.21a1.32,1.32,0,0,0,1.4-.73,2.13,2.13,0,0,0,.27-1.1,4.44,4.44,0,0,0-.82-2.37,3.8,3.8,0,0,0-.38.29,3.24,3.24,0,0,0-1.24,2.53C49.1,84,49.38,84.48,49.87,84.62Z"/><path class="cls-5" d="M47.24,83.28a.89.89,0,1,1-.9.89A.89.89,0,0,1,47.24,83.28Z"/><path class="cls-5" d="M44.2,82.28a1.43,1.43,0,1,1-1.43,1.42A1.42,1.42,0,0,1,44.2,82.28Z"/><path class="cls-6" d="M50.47,79.63a4.73,4.73,0,0,1,.43-.31c-.21-.29-.46-.6-.74-.93a3.38,3.38,0,0,1-2.78-3.68,4.39,4.39,0,0,1,3.16,3.54,8.23,8.23,0,0,1,.68.86,6.34,6.34,0,0,1,.82-.43A3.43,3.43,0,0,1,52.26,74a4.37,4.37,0,0,1,.17,4.57,11.2,11.2,0,0,1,2.25-.59,4,4,0,0,1,2.06-5.06,5,5,0,0,1-1.47,5,18,18,0,0,1,3.23-.08c-.29-.84-1.26-4.39,2.33-6.07a5.89,5.89,0,0,1-2.06,6.09c.58,0,1.18.1,1.78.2s1.22.21,1.74.32c-.07-.94,0-4.53,3.8-5.23a5.86,5.86,0,0,1-3.46,5.32,9.82,9.82,0,0,1,3,1.15c.31-.67,1.84-3.51,5.12-2.39a5.11,5.11,0,0,1-4.89,2.55,6.66,6.66,0,0,1,1.49,1.53,9.38,9.38,0,0,0,.79.94l.1.08a3,3,0,0,1,4-1,3.77,3.77,0,0,1-3.36,1.36,5.94,5.94,0,0,0,3.45.28,2.7,2.7,0,0,1,3.34,1.19,3.58,3.58,0,0,1-3.7-.74c-1,.14-2.89.23-4-.94h0a3.64,3.64,0,0,1,0,2.83s-2.17-1.66-.8-3.83a5.72,5.72,0,0,0-3-2.25,3.91,3.91,0,0,1,1.35,3.7S62.56,81.7,63.48,79a20.45,20.45,0,0,0-2.71-.61,3.89,3.89,0,0,1,1.47,3.79S59.5,81,60.41,78.36a20.45,20.45,0,0,0-3.51-.24,3.91,3.91,0,0,1,2.18,3.51s-2.92-.69-2.48-3.5a13.72,13.72,0,0,0-2.92.4,4.39,4.39,0,0,1,3,3.31s-3.31-.08-3.56-3.17a8.16,8.16,0,0,0-1.74.76A4.76,4.76,0,0,1,52.31,82a2.7,2.7,0,0,1-.31,1.3,1.7,1.7,0,0,1-1.84.9,1.64,1.64,0,0,1-1.06-1.75A3.65,3.65,0,0,1,50.47,79.63Zm-.21,4.2a1.3,1.3,0,0,0,1.4-.72A2.14,2.14,0,0,0,51.93,82a4.44,4.44,0,0,0-.82-2.36,3.73,3.73,0,0,0-.38.28,3.27,3.27,0,0,0-1.24,2.54C49.49,83.2,49.77,83.7,50.26,83.83Z"/><path class="cls-6" d="M47.62,82.49a.9.9,0,1,1-.89.89A.89.89,0,0,1,47.62,82.49Z"/><path class="cls-6" d="M44.59,81.49a1.43,1.43,0,1,1-1.43,1.43A1.43,1.43,0,0,1,44.59,81.49Z"/><path class="cls-4" d="M50.48,80a3.51,3.51,0,0,1,.42-.31c-.21-.29-.46-.6-.74-.92a3.4,3.4,0,0,1-2.78-3.69,4.39,4.39,0,0,1,3.16,3.54,8.23,8.23,0,0,1,.68.86,6.34,6.34,0,0,1,.82-.43,3.43,3.43,0,0,1,.22-4.73,4.37,4.37,0,0,1,.17,4.57,11.91,11.91,0,0,1,2.25-.59,4,4,0,0,1,2.06-5.06,5,5,0,0,1-1.47,5,18,18,0,0,1,3.23-.08c-.29-.84-1.26-4.39,2.33-6.07a5.89,5.89,0,0,1-2.06,6.09c.58,0,1.18.11,1.78.2s1.22.21,1.74.33c-.07-.95,0-4.54,3.8-5.24a5.86,5.86,0,0,1-3.46,5.32,10.09,10.09,0,0,1,3,1.15c.31-.67,1.84-3.51,5.12-2.39a5.11,5.11,0,0,1-4.89,2.55,6.66,6.66,0,0,1,1.49,1.53,9.38,9.38,0,0,0,.79.94l.1.08a3,3,0,0,1,4-1,3.77,3.77,0,0,1-3.36,1.36,5.85,5.85,0,0,0,3.45.28,2.7,2.7,0,0,1,3.34,1.19,3.58,3.58,0,0,1-3.7-.74c-1,.14-2.89.23-4.06-.94h0a3.64,3.64,0,0,1,0,2.83S65.6,84,67,81.83a5.72,5.72,0,0,0-3-2.25,3.92,3.92,0,0,1,1.35,3.71s-2.75-1.2-1.83-3.87a20.45,20.45,0,0,0-2.71-.61,3.89,3.89,0,0,1,1.47,3.79s-2.74-1.19-1.83-3.85a20.45,20.45,0,0,0-3.51-.24A3.91,3.91,0,0,1,59.08,82s-2.93-.69-2.48-3.5a14.39,14.39,0,0,0-2.92.4,4.39,4.39,0,0,1,3,3.31s-3.31-.08-3.56-3.17a8.16,8.16,0,0,0-1.74.76,4.79,4.79,0,0,1,.88,2.58A2.7,2.7,0,0,1,52,83.7a1.7,1.7,0,0,1-1.84.9,1.63,1.63,0,0,1-1.06-1.74A3.6,3.6,0,0,1,50.48,80Zm-.22,4.2a1.3,1.3,0,0,0,1.4-.72,2.14,2.14,0,0,0,.27-1.11A4.44,4.44,0,0,0,51.11,80a2.72,2.72,0,0,0-.38.29,3.24,3.24,0,0,0-1.24,2.53C49.49,83.59,49.77,84.09,50.26,84.22Z"/><path class="cls-4" d="M47.63,82.88a.9.9,0,1,1-.9.9A.89.89,0,0,1,47.63,82.88Z"/><path class="cls-5" d="M40.35,83.24A1.63,1.63,0,0,1,39.3,85a1.7,1.7,0,0,1-1.84-.9,2.61,2.61,0,0,1-.32-1.3A4.9,4.9,0,0,1,38,80.21a7.49,7.49,0,0,0-1.74-.76c-.25,3.09-3.55,3.17-3.55,3.17a4.41,4.41,0,0,1,3.05-3.31,14.4,14.4,0,0,0-2.93-.4c.45,2.81-2.47,3.51-2.47,3.51a3.9,3.9,0,0,1,2.18-3.52,21.51,21.51,0,0,0-3.51.24C30,81.8,27.22,83,27.22,83a3.88,3.88,0,0,1,1.46-3.79,20.26,20.26,0,0,0-2.7.61c.91,2.67-1.83,3.87-1.83,3.87A3.87,3.87,0,0,1,25.5,80a5.73,5.73,0,0,0-3,2.24c1.38,2.17-.79,3.83-.79,3.83a3.64,3.64,0,0,1-.05-2.83h0c-1.17,1.17-3.07,1.08-4.05.94a3.58,3.58,0,0,1-3.7.74,2.69,2.69,0,0,1,3.33-1.19,5.88,5.88,0,0,0,3.46-.28,3.79,3.79,0,0,1-3.37-1.36,3,3,0,0,1,3.95,1l.11-.08a10.94,10.94,0,0,0,.79-.94,6.27,6.27,0,0,1,1.49-1.53,5.11,5.11,0,0,1-4.89-2.55c3.27-1.12,4.81,1.72,5.12,2.4a9.79,9.79,0,0,1,3-1.16,5.87,5.87,0,0,1-3.47-5.31c3.85.69,3.87,4.28,3.81,5.23.52-.12,1.09-.23,1.73-.33s1.2-.16,1.79-.2a5.87,5.87,0,0,1-2.06-6.09c3.58,1.68,2.61,5.23,2.32,6.07a18.15,18.15,0,0,1,3.24.08,5,5,0,0,1-1.47-5,4,4,0,0,1,2.06,5.06A11.61,11.61,0,0,1,37,79.3a4.36,4.36,0,0,1,.18-4.57,3.44,3.44,0,0,1,.22,4.73,7.06,7.06,0,0,1,.82.43,8.07,8.07,0,0,1,.67-.86,4.41,4.41,0,0,1,3.17-3.54,3.4,3.4,0,0,1-2.78,3.69,10.66,10.66,0,0,0-.74.92,4.56,4.56,0,0,1,.42.31A3.62,3.62,0,0,1,40.35,83.24Zm-.39,0a3.23,3.23,0,0,0-1.23-2.53c-.12-.1-.26-.2-.39-.29a4.5,4.5,0,0,0-.81,2.37,2.26,2.26,0,0,0,.26,1.1,1.31,1.31,0,0,0,1.41.72C39.68,84.48,40,84,40,83.24Z"/><path class="cls-6" d="M40,82.46a1.63,1.63,0,0,1-1.05,1.75,1.69,1.69,0,0,1-1.84-.91A2.49,2.49,0,0,1,36.75,82a4.85,4.85,0,0,1,.88-2.58,7.49,7.49,0,0,0-1.74-.76c-.25,3.09-3.55,3.17-3.55,3.17a4.39,4.39,0,0,1,3-3.31,13.82,13.82,0,0,0-2.93-.4c.45,2.81-2.47,3.5-2.47,3.5a3.9,3.9,0,0,1,2.18-3.51,20.45,20.45,0,0,0-3.51.24c.9,2.66-1.83,3.85-1.83,3.85a3.88,3.88,0,0,1,1.46-3.79,20.26,20.26,0,0,0-2.7.61c.91,2.67-1.83,3.86-1.83,3.86a3.89,3.89,0,0,1,1.35-3.7,5.79,5.79,0,0,0-3,2.25c1.38,2.17-.79,3.83-.79,3.83a3.64,3.64,0,0,1-.05-2.83h0c-1.16,1.16-3.07,1.08-4,.94a3.58,3.58,0,0,1-3.7.74,2.69,2.69,0,0,1,3.33-1.19,6,6,0,0,0,3.46-.28,3.79,3.79,0,0,1-3.37-1.36,3,3,0,0,1,3.95,1l.1-.08a8.21,8.21,0,0,0,.79-.94,6.52,6.52,0,0,1,1.5-1.53,5.11,5.11,0,0,1-4.89-2.55c3.27-1.12,4.81,1.72,5.12,2.39a9.85,9.85,0,0,1,2.95-1.15A5.88,5.88,0,0,1,23,73.08c3.85.7,3.87,4.29,3.81,5.23.51-.11,1.09-.22,1.73-.32s1.2-.16,1.79-.2a5.87,5.87,0,0,1-2.06-6.09c3.58,1.68,2.61,5.23,2.32,6.07a18.15,18.15,0,0,1,3.24.08,5,5,0,0,1-1.47-5,4,4,0,0,1,2.06,5.06,10.93,10.93,0,0,1,2.24.59A4.36,4.36,0,0,1,36.81,74,3.45,3.45,0,0,1,37,78.68a7.06,7.06,0,0,1,.82.43,8.07,8.07,0,0,1,.67-.86,4.41,4.41,0,0,1,3.17-3.54,3.38,3.38,0,0,1-2.78,3.68c-.29.33-.53.64-.74.93.14.1.29.2.42.31A3.62,3.62,0,0,1,40,82.46Zm-.39,0a3.26,3.26,0,0,0-1.23-2.54c-.12-.1-.26-.19-.39-.28A4.41,4.41,0,0,0,37.14,82a2.27,2.27,0,0,0,.26,1.11,1.31,1.31,0,0,0,1.41.72C39.29,83.7,39.57,83.2,39.57,82.46Z"/><path class="cls-4" d="M39.57,82.86a3.23,3.23,0,0,0-1.23-2.54A3.58,3.58,0,0,0,38,80a4.38,4.38,0,0,0-.81,2.36,2.27,2.27,0,0,0,.26,1.11,1.31,1.31,0,0,0,1.41.72C39.29,84.09,39.57,83.59,39.57,82.86Zm.39,0a1.63,1.63,0,0,1-1.05,1.74,1.69,1.69,0,0,1-1.84-.9,2.57,2.57,0,0,1-.32-1.3,4.87,4.87,0,0,1,.88-2.58,7.49,7.49,0,0,0-1.74-.76c-.25,3.09-3.55,3.17-3.55,3.17a4.41,4.41,0,0,1,3-3.31,14.5,14.5,0,0,0-2.93-.4C32.91,81.33,30,82,30,82a3.9,3.9,0,0,1,2.18-3.51,20.45,20.45,0,0,0-3.51.24c.9,2.66-1.83,3.85-1.83,3.85a3.88,3.88,0,0,1,1.46-3.79,20.26,20.26,0,0,0-2.7.61c.91,2.67-1.83,3.86-1.83,3.86a3.87,3.87,0,0,1,1.35-3.7,5.79,5.79,0,0,0-3,2.25c1.38,2.17-.79,3.83-.79,3.83a3.64,3.64,0,0,1-.05-2.83h0c-1.17,1.17-3.07,1.08-4,1a3.59,3.59,0,0,1-3.7.73,2.69,2.69,0,0,1,3.33-1.19,5.88,5.88,0,0,0,3.46-.28,3.79,3.79,0,0,1-3.37-1.36,3,3,0,0,1,3.95,1,.39.39,0,0,0,.1-.08,8.21,8.21,0,0,0,.79-.94,6.52,6.52,0,0,1,1.5-1.53,5.11,5.11,0,0,1-4.89-2.55c3.27-1.12,4.81,1.72,5.12,2.39a10.12,10.12,0,0,1,2.95-1.15A5.88,5.88,0,0,1,23,73.47c3.85.7,3.87,4.29,3.81,5.24.51-.12,1.09-.23,1.73-.33s1.2-.16,1.79-.2a5.87,5.87,0,0,1-2.06-6.09c3.58,1.68,2.61,5.23,2.32,6.07a18.15,18.15,0,0,1,3.24.08,5,5,0,0,1-1.47-5,4,4,0,0,1,2.06,5.06,11.61,11.61,0,0,1,2.24.59,4.36,4.36,0,0,1,.18-4.57A3.44,3.44,0,0,1,37,79.07a7.06,7.06,0,0,1,.82.43,9.29,9.29,0,0,1,.67-.87,4.4,4.4,0,0,1,3.17-3.53,3.4,3.4,0,0,1-2.78,3.69,10.66,10.66,0,0,0-.74.92c.14.1.29.2.42.31A3.62,3.62,0,0,1,40,82.86Z"/><path class="cls-4" d="M44.59,81.88a1.43,1.43,0,1,1-1.43,1.43A1.43,1.43,0,0,1,44.59,81.88Z"/><path class="cls-5" d="M46.91,79.72a1,1,0,1,1-1,1A1,1,0,0,1,46.91,79.72Z"/><path class="cls-6" d="M47.18,79.17a1,1,0,1,1-1,1A1,1,0,0,1,47.18,79.17Z"/><path class="cls-4" d="M47.18,79.44a1,1,0,1,1-1,1A1,1,0,0,1,47.18,79.44Z"/><path class="cls-5" d="M41.83,83.28a.89.89,0,1,0,.89.89A.89.89,0,0,0,41.83,83.28Z"/><path class="cls-6" d="M41.44,82.49a.9.9,0,1,0,.89.89A.89.89,0,0,0,41.44,82.49Z"/><path class="cls-4" d="M41.44,82.88a.9.9,0,1,0,.89.9A.89.89,0,0,0,41.44,82.88Z"/><path class="cls-5" d="M42.16,79.72a1,1,0,1,0,1,1A1,1,0,0,0,42.16,79.72Z"/><path class="cls-6" d="M41.88,79.17a1,1,0,1,0,1,1A1,1,0,0,0,41.88,79.17Z"/><path class="cls-4" d="M41.88,79.44a1,1,0,1,0,1,1A1,1,0,0,0,41.88,79.44Z"/><path class="cls-3" d="M72.84,44.53a28.31,28.31,0,1,1-56.62,0Z"/><path class="cls-3" d="M24.51,24.51a28.31,28.31,0,0,1,48.33,20H16.22A28.27,28.27,0,0,1,24.51,24.51Z"/><path class="cls-2" d="M21.84,24.58a30.26,30.26,0,0,0,0,39.9L1.94,84.38V4.68Z"/><path class="cls-1" d="M21.63,24.37h0l.21.21a30.26,30.26,0,0,0,0,39.9l-.07.07h0L1.94,84.38h0l1.59-3.81L1.94,84.37V4.73L3,7.42,1.94,4.73V4.68Z"/><path class="cls-3" d="M1.94,4.68v.05L0,0,24.37,24.37H21.63Z"/><path class="cls-4" d="M1.94,4.73V84.37L0,89V0Z"/><path class="cls-4" d="M1.94,84.38,21.77,64.55h2.74L0,89.06v0l1.94-4.66Z"/><path class="cls-4" d="M21.84,64.48a30.26,30.26,0,0,1,0-39.9l-.21-.21h2.74l.14.14a28.32,28.32,0,0,0,0,40H21.77Z"/><path class="cls-5" d="M8.65,50.08c.11.13.21.28.31.42a9.21,9.21,0,0,0,.93-.73A3.39,3.39,0,0,1,13.57,47,4.38,4.38,0,0,1,10,50.15c-.3.26-.59.48-.86.68a7.85,7.85,0,0,1,.42.82,3.44,3.44,0,0,1,4.74.22A4.39,4.39,0,0,1,9.76,52a11,11,0,0,1,.59,2.25,4,4,0,0,1,5.07,2.05,5,5,0,0,1-5-1.47,17.23,17.23,0,0,1,.09,3.24c.84-.29,4.38-1.26,6.07,2.32a5.87,5.87,0,0,1-6.09-2c-.05.58-.11,1.18-.21,1.78s-.2,1.22-.32,1.73c.94-.06,4.53,0,5.23,3.81a5.88,5.88,0,0,1-5.32-3.46,9.74,9.74,0,0,1-1.15,2.95c.67.32,3.52,1.85,2.39,5.12a5.1,5.1,0,0,1-2.55-4.88A6.66,6.66,0,0,1,7,66.92a8.3,8.3,0,0,0-.93.79.81.81,0,0,0-.09.1,3,3,0,0,1,1,4A3.77,3.77,0,0,1,5.62,68.4a5.93,5.93,0,0,0-.28,3.45,2.7,2.7,0,0,1-1.18,3.34,3.56,3.56,0,0,1,.73-3.7c-.14-1-.22-2.89.94-4.06h0A3.61,3.61,0,0,1,3,67.38s1.65-2.17,3.83-.8a5.76,5.76,0,0,0,2.24-3,3.91,3.91,0,0,1-3.7,1.35s1.19-2.75,3.86-1.83a20.64,20.64,0,0,0,.62-2.71,3.91,3.91,0,0,1-3.8,1.47S7.26,59.11,9.92,60a20.45,20.45,0,0,0,.24-3.51,3.89,3.89,0,0,1-3.51,2.17s.69-2.92,3.5-2.47a13.63,13.63,0,0,0-.4-2.92,4.37,4.37,0,0,1-3.31,3s.08-3.3,3.17-3.55A8.14,8.14,0,0,0,8.86,51a4.9,4.9,0,0,1-2.59.88A2.62,2.62,0,0,1,5,51.61a1.69,1.69,0,0,1-.91-1.84,1.64,1.64,0,0,1,1.75-1.06A3.62,3.62,0,0,1,8.65,50.08Zm-4.2-.21a1.3,1.3,0,0,0,.72,1.4,2.17,2.17,0,0,0,1.11.27,4.41,4.41,0,0,0,2.36-.82,3.73,3.73,0,0,0-.28-.38A3.26,3.26,0,0,0,5.82,49.1C5.08,49.1,4.58,49.38,4.45,49.87Z"/><path class="cls-5" d="M5.79,47.23a.9.9,0,1,1-.89-.89A.89.89,0,0,1,5.79,47.23Z"/><path class="cls-5" d="M6.79,44.2a1.43,1.43,0,1,1-1.43-1.43A1.43,1.43,0,0,1,6.79,44.2Z"/><path class="cls-6" d="M9.43,50.47c.11.13.21.28.32.42a10.43,10.43,0,0,0,.92-.73,3.39,3.39,0,0,1,3.68-2.78,4.37,4.37,0,0,1-3.53,3.16c-.3.26-.59.49-.86.68a7.85,7.85,0,0,1,.42.82,3.45,3.45,0,0,1,4.74.22,4.39,4.39,0,0,1-4.58.17,11.2,11.2,0,0,1,.59,2.25,4,4,0,0,1,5.07,2,5,5,0,0,1-5-1.47,18.15,18.15,0,0,1,.08,3.24c.84-.29,4.38-1.26,6.07,2.32a5.87,5.87,0,0,1-6.09-2c0,.58-.11,1.18-.2,1.78s-.21,1.22-.33,1.74c.94-.07,4.54,0,5.23,3.8a5.84,5.84,0,0,1-5.31-3.46,9.9,9.9,0,0,1-1.16,3c.67.31,3.52,1.84,2.39,5.12a5.13,5.13,0,0,1-2.55-4.89,6.84,6.84,0,0,1-1.52,1.49,7.57,7.57,0,0,0-.94.79l-.09.1a3,3,0,0,1,1,4A3.79,3.79,0,0,1,6.4,68.79a5.83,5.83,0,0,0-.27,3.45,2.7,2.7,0,0,1-1.19,3.34,3.56,3.56,0,0,1,.73-3.7c-.14-1-.22-2.89,1-4.06h0a3.61,3.61,0,0,1-2.82,0S5.46,65.6,7.63,67a5.76,5.76,0,0,0,2.24-3,3.9,3.9,0,0,1-3.7,1.35S7.36,62.56,10,63.48a20.27,20.27,0,0,0,.62-2.71,3.91,3.91,0,0,1-3.8,1.47S8,59.5,10.7,60.41a19.49,19.49,0,0,0,.24-3.51,3.88,3.88,0,0,1-3.51,2.18s.7-2.93,3.5-2.48a14.42,14.42,0,0,0-.39-2.92,4.43,4.43,0,0,1-3.32,3s.08-3.31,3.17-3.56a8.14,8.14,0,0,0-.75-1.74,4.81,4.81,0,0,1-2.59.88A2.62,2.62,0,0,1,5.76,52a1.7,1.7,0,0,1-.9-1.85,1.63,1.63,0,0,1,1.74-1A3.62,3.62,0,0,1,9.43,50.47Zm-4.2-.21A1.31,1.31,0,0,0,6,51.66a2.17,2.17,0,0,0,1.11.27,4.47,4.47,0,0,0,2.37-.82c-.1-.13-.19-.27-.29-.39A3.28,3.28,0,0,0,6.6,49.49C5.86,49.49,5.36,49.77,5.23,50.26Z"/><path class="cls-6" d="M6.57,47.62a.89.89,0,1,1-.89-.89A.89.89,0,0,1,6.57,47.62Z"/><path class="cls-6" d="M7.57,44.59a1.43,1.43,0,1,1-1.43-1.43A1.43,1.43,0,0,1,7.57,44.59Z"/><path class="cls-4" d="M9,50.47c.11.13.21.28.32.42a10.43,10.43,0,0,0,.92-.73A3.39,3.39,0,0,1,14,47.38a4.37,4.37,0,0,1-3.53,3.16c-.3.26-.59.49-.86.68A7.85,7.85,0,0,1,10,52a3.44,3.44,0,0,1,4.74.22,4.39,4.39,0,0,1-4.58.17,11.2,11.2,0,0,1,.59,2.25,4,4,0,0,1,5.07,2,5,5,0,0,1-5-1.47,18.15,18.15,0,0,1,.08,3.24c.84-.29,4.38-1.26,6.07,2.32a5.87,5.87,0,0,1-6.09-2c-.05.58-.11,1.18-.21,1.78s-.21,1.22-.32,1.73c.94-.06,4.53,0,5.23,3.81a5.86,5.86,0,0,1-5.31-3.46,10.17,10.17,0,0,1-1.16,3c.67.31,3.52,1.84,2.39,5.12A5.13,5.13,0,0,1,9,65.82a6.66,6.66,0,0,1-1.53,1.49,8.3,8.3,0,0,0-.93.79l-.09.1a3,3,0,0,1,1,4A3.79,3.79,0,0,1,6,68.79a5.83,5.83,0,0,0-.27,3.45,2.7,2.7,0,0,1-1.19,3.34,3.56,3.56,0,0,1,.73-3.7c-.14-1-.22-2.89.94-4.06h0a3.61,3.61,0,0,1-2.82,0S5.07,65.6,7.24,67a5.76,5.76,0,0,0,2.24-3,3.91,3.91,0,0,1-3.7,1.35S7,62.56,9.64,63.48a20.27,20.27,0,0,0,.62-2.71,3.91,3.91,0,0,1-3.8,1.47s1.19-2.74,3.85-1.83a19.49,19.49,0,0,0,.24-3.51A3.88,3.88,0,0,1,7,59.07s.69-2.92,3.5-2.47a14.42,14.42,0,0,0-.39-2.92,4.43,4.43,0,0,1-3.32,3s.08-3.31,3.17-3.56a8.14,8.14,0,0,0-.75-1.74,4.81,4.81,0,0,1-2.58.88A2.63,2.63,0,0,1,5.37,52a1.7,1.7,0,0,1-.9-1.85,1.62,1.62,0,0,1,1.74-1A3.62,3.62,0,0,1,9,50.47Zm-4.2-.21a1.31,1.31,0,0,0,.72,1.4,2.17,2.17,0,0,0,1.11.27A4.47,4.47,0,0,0,9,51.11c-.1-.13-.19-.27-.29-.38a3.26,3.26,0,0,0-2.54-1.24C5.47,49.49,5,49.77,4.84,50.26Z"/><path class="cls-4" d="M6.18,47.62a.9.9,0,1,1-.89-.89A.89.89,0,0,1,6.18,47.62Z"/><path class="cls-5" d="M5.82,40.35A1.63,1.63,0,0,1,4.07,39.3,1.69,1.69,0,0,1,5,37.46a2.49,2.49,0,0,1,1.29-.32A4.9,4.9,0,0,1,8.86,38a7.93,7.93,0,0,0,.75-1.74C6.52,36,6.44,32.73,6.44,32.73a4.39,4.39,0,0,1,3.31,3.05,13.82,13.82,0,0,0,.4-2.93c-2.81.45-3.5-2.47-3.5-2.47a3.88,3.88,0,0,1,3.51,2.18,20.45,20.45,0,0,0-.24-3.51c-2.66.9-3.85-1.84-3.85-1.84a3.93,3.93,0,0,1,3.8,1.47A20.64,20.64,0,0,0,9.25,26c-2.67.92-3.86-1.82-3.86-1.82a3.89,3.89,0,0,1,3.7,1.35,5.84,5.84,0,0,0-2.24-3C4.67,23.86,3,21.69,3,21.69a3.61,3.61,0,0,1,2.82-.05s0,0,0,0c-1.16-1.17-1.08-3.07-.94-4.05a3.56,3.56,0,0,1-.73-3.7,2.68,2.68,0,0,1,1.18,3.33,6,6,0,0,0,.28,3.46A3.79,3.79,0,0,1,7,17.3a3,3,0,0,1-1,3.95l.09.11a8.18,8.18,0,0,0,.93.78,6.66,6.66,0,0,1,1.53,1.49,5.1,5.1,0,0,1,2.55-4.88C12.25,22,9.4,23.56,8.73,23.87a9.82,9.82,0,0,1,1.15,3,5.88,5.88,0,0,1,5.32-3.47c-.7,3.85-4.29,3.87-5.23,3.81.12.52.22,1.09.32,1.73s.16,1.2.21,1.79a5.87,5.87,0,0,1,6.09-2.06c-1.69,3.58-5.23,2.61-6.07,2.32a17.23,17.23,0,0,1-.09,3.24,5.06,5.06,0,0,1,5-1.47,4,4,0,0,1-5.07,2.06A10.93,10.93,0,0,1,9.76,37a4.38,4.38,0,0,1,4.58.18,3.44,3.44,0,0,1-4.74.21,8,8,0,0,1-.42.83,10.75,10.75,0,0,1,.86.67,4.39,4.39,0,0,1,3.53,3.17A3.39,3.39,0,0,1,9.89,39.3,9.38,9.38,0,0,0,9,38.56c-.1.14-.2.29-.31.42A3.62,3.62,0,0,1,5.82,40.35Zm0-.39a3.25,3.25,0,0,0,2.54-1.23c.1-.12.19-.26.28-.39a4.38,4.38,0,0,0-2.36-.81,2.19,2.19,0,0,0-1.11.26,1.32,1.32,0,0,0-.72,1.41C4.58,39.68,5.08,40,5.82,40Z"/><path class="cls-6" d="M6.6,40a1.62,1.62,0,0,1-1.74-1.05,1.69,1.69,0,0,1,.9-1.84,2.49,2.49,0,0,1,1.29-.32,4.9,4.9,0,0,1,2.59.88,7.93,7.93,0,0,0,.75-1.74c-3.09-.25-3.17-3.55-3.17-3.55a4.42,4.42,0,0,1,3.32,3,14.32,14.32,0,0,0,.39-2.92c-2.8.45-3.5-2.47-3.5-2.47a3.88,3.88,0,0,1,3.51,2.18,20.56,20.56,0,0,0-.24-3.52c-2.66.91-3.85-1.82-3.85-1.82a3.9,3.9,0,0,1,3.8,1.46A20.64,20.64,0,0,0,10,25.58c-2.67.92-3.86-1.82-3.86-1.82a3.86,3.86,0,0,1,3.7,1.35,5.8,5.8,0,0,0-2.24-3C5.46,23.47,3.8,21.3,3.8,21.3a3.61,3.61,0,0,1,2.82-.05h0c-1.17-1.17-1.09-3.07-1-4a3.58,3.58,0,0,1-.73-3.71,2.7,2.7,0,0,1,1.19,3.34,5.86,5.86,0,0,0,.27,3.46,3.8,3.8,0,0,1,1.36-3.37,3,3,0,0,1-1,3.95l.09.1a6.79,6.79,0,0,0,.94.79,6.84,6.84,0,0,1,1.52,1.49,5.1,5.1,0,0,1,2.55-4.88c1.13,3.27-1.72,4.81-2.39,5.12a9.79,9.79,0,0,1,1.16,3A5.86,5.86,0,0,1,16,23c-.7,3.85-4.29,3.87-5.23,3.81.12.52.23,1.09.33,1.73s.16,1.2.2,1.79a5.87,5.87,0,0,1,6.09-2.06c-1.69,3.58-5.23,2.61-6.07,2.32a18.15,18.15,0,0,1-.08,3.24,5,5,0,0,1,5-1.47,4,4,0,0,1-5.07,2.06,10.93,10.93,0,0,1-.59,2.24,4.38,4.38,0,0,1,4.58.18,3.46,3.46,0,0,1-4.74.22,9,9,0,0,1-.42.82,10.75,10.75,0,0,1,.86.67,4.37,4.37,0,0,1,3.53,3.17,3.39,3.39,0,0,1-3.68-2.78,10.66,10.66,0,0,0-.92-.74c-.11.14-.21.29-.32.42A3.62,3.62,0,0,1,6.6,40Zm0-.39a3.25,3.25,0,0,0,2.54-1.23c.1-.12.19-.26.29-.39a4.47,4.47,0,0,0-2.37-.82A2.28,2.28,0,0,0,6,37.4a1.32,1.32,0,0,0-.72,1.41C5.36,39.3,5.86,39.57,6.6,39.57Z"/><path class="cls-4" d="M6.21,39.57a3.25,3.25,0,0,0,2.54-1.23c.1-.12.19-.26.29-.39a4.47,4.47,0,0,0-2.37-.82,2.28,2.28,0,0,0-1.11.27,1.32,1.32,0,0,0-.72,1.41C5,39.3,5.47,39.57,6.21,39.57Zm0,.39a1.61,1.61,0,0,1-1.74-1.05,1.69,1.69,0,0,1,.9-1.84,2.61,2.61,0,0,1,1.3-.32,4.9,4.9,0,0,1,2.58.88A7.93,7.93,0,0,0,10,35.89c-3.09-.25-3.17-3.55-3.17-3.55a4.42,4.42,0,0,1,3.32,3,14.32,14.32,0,0,0,.39-2.92C7.73,32.91,7,30,7,30a3.88,3.88,0,0,1,3.51,2.18,19.6,19.6,0,0,0-.24-3.52c-2.66.91-3.85-1.82-3.85-1.82a3.9,3.9,0,0,1,3.8,1.46,20.64,20.64,0,0,0-.62-2.71C7,26.5,5.78,23.76,5.78,23.76a3.87,3.87,0,0,1,3.7,1.35,5.8,5.8,0,0,0-2.24-3c-2.17,1.38-3.83-.79-3.83-.79a3.61,3.61,0,0,1,2.82-.05h0c-1.16-1.17-1.08-3.07-.94-4a3.58,3.58,0,0,1-.73-3.71,2.7,2.7,0,0,1,1.19,3.34A5.86,5.86,0,0,0,6,20.28a3.8,3.8,0,0,1,1.36-3.37,3,3,0,0,1-1,3.95l.09.1a7.37,7.37,0,0,0,.93.79A6.66,6.66,0,0,1,9,23.24a5.1,5.1,0,0,1,2.55-4.88c1.13,3.27-1.72,4.81-2.39,5.12a10.06,10.06,0,0,1,1.16,3A5.86,5.86,0,0,1,15.59,23c-.7,3.85-4.29,3.87-5.23,3.81.11.52.23,1.09.32,1.73s.16,1.2.21,1.79A5.87,5.87,0,0,1,17,28.24c-1.69,3.58-5.23,2.61-6.07,2.32a18.15,18.15,0,0,1-.08,3.24,5,5,0,0,1,5-1.47,4,4,0,0,1-5.07,2.06,10.93,10.93,0,0,1-.59,2.24,4.38,4.38,0,0,1,4.58.18A3.46,3.46,0,0,1,10,37a9,9,0,0,1-.42.82,10.75,10.75,0,0,1,.86.67A4.37,4.37,0,0,1,14,41.69a3.39,3.39,0,0,1-3.68-2.78,10.66,10.66,0,0,0-.92-.74c-.11.14-.21.29-.32.42A3.62,3.62,0,0,1,6.21,40Z"/><circle class="cls-4" cx="5.75" cy="44.59" r="1.43"/><path class="cls-5" d="M9.34,46.91a1,1,0,0,1-1,1,1,1,0,1,1,0-2A1,1,0,0,1,9.34,46.91Z"/><path class="cls-6" d="M9.9,47.18a1,1,0,1,1-1-1A1,1,0,0,1,9.9,47.18Z"/><path class="cls-4" d="M9.62,47.18a1,1,0,1,1-1-1A1,1,0,0,1,9.62,47.18Z"/><path class="cls-5" d="M5.79,41.83a.9.9,0,1,0-.89.89A.89.89,0,0,0,5.79,41.83Z"/><path class="cls-6" d="M6.57,41.44a.89.89,0,1,0-.89.89A.89.89,0,0,0,6.57,41.44Z"/><path class="cls-4" d="M6.18,41.44a.9.9,0,1,0-.89.89A.89.89,0,0,0,6.18,41.44Z"/><path class="cls-5" d="M9.34,42.15a1,1,0,0,0-2,0,1,1,0,0,0,1,1A1,1,0,0,0,9.34,42.15Z"/><path class="cls-6" d="M9.9,41.88a1,1,0,1,0-1,1A1,1,0,0,0,9.9,41.88Z"/><path class="cls-4" d="M9.62,41.88a1,1,0,1,0-1,1A1,1,0,0,0,9.62,41.88Z"/><path class="cls-2" d="M64.48,21.84a30.26,30.26,0,0,0-39.9,0L4.68,1.94h79.7Z"/><path class="cls-1" d="M64.69,21.63v0l-.21.21a30.26,30.26,0,0,0-39.9,0l-.07-.07v0L4.68,1.94h0L8.5,3.53,4.69,1.94H84.34L81.64,3l2.7-1.1h0Z"/><path class="cls-4" d="M84.38,1.94h0L89.06,0,64.69,24.37V21.63Z"/><path class="cls-3" d="M84.34,1.94H4.69L0,0h89Z"/><path class="cls-4" d="M4.68,1.94,24.51,21.77v2.74L0,0H0L4.69,1.94Z"/><path class="cls-4" d="M24.58,21.84a30.26,30.26,0,0,1,39.9,0l.21-.21v2.74l-.14.14a28.32,28.32,0,0,0-40,0V21.77Z"/><path class="cls-5" d="M39,8.65a4.56,4.56,0,0,1-.42.31,10.71,10.71,0,0,0,.74.93,3.38,3.38,0,0,1,2.78,3.68A4.4,4.4,0,0,1,38.91,10c-.25-.3-.48-.59-.67-.86a9,9,0,0,1-.82.42,3.46,3.46,0,0,1-.22,4.74A4.38,4.38,0,0,1,37,9.76a10.93,10.93,0,0,1-2.24.59,4,4,0,0,1-2.06,5.07,5.06,5.06,0,0,1,1.47-5,18.12,18.12,0,0,1-3.24.09c.29.83,1.26,4.38-2.32,6.06a5.85,5.85,0,0,1,2.06-6.08c-.59-.05-1.18-.11-1.79-.21s-1.21-.21-1.73-.32c.06.94,0,4.53-3.81,5.23a5.86,5.86,0,0,1,3.47-5.31,10.06,10.06,0,0,1-3-1.16c-.31.67-1.85,3.51-5.12,2.39a5.11,5.11,0,0,1,4.89-2.55A6.27,6.27,0,0,1,22.15,7a9.51,9.51,0,0,0-.79-.93L21.25,6A3,3,0,0,1,17.3,7a3.79,3.79,0,0,1,3.37-1.36,6,6,0,0,0-3.46-.28,2.68,2.68,0,0,1-3.33-1.18,3.56,3.56,0,0,1,3.7.73c1-.14,2.88-.22,4.05.94h0A3.64,3.64,0,0,1,21.69,3s2.17,1.66.79,3.83a5.79,5.79,0,0,0,3,2.25,3.89,3.89,0,0,1-1.35-3.7S26.89,6.58,26,9.25a20.08,20.08,0,0,0,2.7.62,3.9,3.9,0,0,1-1.46-3.8S30,7.26,29.05,9.92a20.45,20.45,0,0,0,3.51.24,3.9,3.9,0,0,1-2.18-3.51s2.92.69,2.47,3.5a13.73,13.73,0,0,0,2.93-.4,4.39,4.39,0,0,1-3.05-3.31s3.3.08,3.55,3.17A7.49,7.49,0,0,0,38,8.85a4.85,4.85,0,0,1-.88-2.58A2.67,2.67,0,0,1,37.46,5a1.7,1.7,0,0,1,1.84-.9,1.63,1.63,0,0,1,1.05,1.75A3.62,3.62,0,0,1,39,8.65Zm.22-4.2a1.31,1.31,0,0,0-1.41.72,2.27,2.27,0,0,0-.26,1.11,4.47,4.47,0,0,0,.81,2.36,3.89,3.89,0,0,0,.39-.28A3.26,3.26,0,0,0,40,5.82C40,5.08,39.68,4.58,39.2,4.45Z"/><path class="cls-5" d="M41.83,5.79a.9.9,0,1,1,.89-.89A.89.89,0,0,1,41.83,5.79Z"/><path class="cls-5" d="M44.87,6.79a1.43,1.43,0,1,1,1.42-1.43A1.43,1.43,0,0,1,44.87,6.79Z"/><path class="cls-6" d="M38.59,9.43c-.13.11-.28.21-.42.32a10.66,10.66,0,0,0,.74.92,3.39,3.39,0,0,1,2.78,3.68,4.38,4.38,0,0,1-3.17-3.53,10.75,10.75,0,0,1-.67-.86,9,9,0,0,1-.82.42,3.46,3.46,0,0,1-.22,4.74,4.38,4.38,0,0,1-.18-4.58,10.93,10.93,0,0,1-2.24.59,4,4,0,0,1-2.06,5.07,5,5,0,0,1,1.47-5,18.15,18.15,0,0,1-3.24.08c.29.84,1.26,4.38-2.32,6.07a5.87,5.87,0,0,1,2.06-6.09c-.59,0-1.18-.11-1.79-.21s-1.21-.2-1.73-.32c.06.94,0,4.53-3.81,5.23a5.86,5.86,0,0,1,3.46-5.31,10.09,10.09,0,0,1-2.95-1.16c-.31.67-1.85,3.52-5.12,2.39a5.13,5.13,0,0,1,4.89-2.55,6.52,6.52,0,0,1-1.5-1.53A7.37,7.37,0,0,0,21,6.89l-.1-.09a3,3,0,0,1-3.95,1A3.79,3.79,0,0,1,20.28,6.4a5.86,5.86,0,0,0-3.46-.27,2.7,2.7,0,0,1-3.33-1.19,3.56,3.56,0,0,1,3.7.73c1-.14,2.88-.22,4,.94h0A3.61,3.61,0,0,1,21.3,3.8s2.17,1.66.79,3.83a5.84,5.84,0,0,0,3,2.24,3.86,3.86,0,0,1-1.35-3.7S26.5,7.36,25.59,10a20.08,20.08,0,0,0,2.7.62,3.9,3.9,0,0,1-1.46-3.8S29.56,8,28.66,10.7a20.45,20.45,0,0,0,3.51.24A3.88,3.88,0,0,1,30,7.43s2.92.69,2.47,3.5a13.73,13.73,0,0,0,2.93-.4,4.39,4.39,0,0,1-3-3.31s3.3.08,3.55,3.17a7.93,7.93,0,0,0,1.74-.75,4.9,4.9,0,0,1-.88-2.59,2.49,2.49,0,0,1,.32-1.29,1.69,1.69,0,0,1,1.84-.9A1.61,1.61,0,0,1,40,6.6,3.62,3.62,0,0,1,38.59,9.43Zm.22-4.2A1.33,1.33,0,0,0,37.4,6a2.3,2.3,0,0,0-.26,1.11A4.47,4.47,0,0,0,38,9.42c.13-.09.27-.18.39-.28A3.25,3.25,0,0,0,39.57,6.6C39.57,5.86,39.29,5.36,38.81,5.23Z"/><path class="cls-6" d="M41.44,6.57a.9.9,0,1,1,.89-.89A.89.89,0,0,1,41.44,6.57Z"/><path class="cls-6" d="M44.47,7.57A1.43,1.43,0,1,1,45.9,6.14,1.43,1.43,0,0,1,44.47,7.57Z"/><path class="cls-4" d="M38.59,9c-.13.11-.28.21-.42.31a9.38,9.38,0,0,0,.74.93A3.39,3.39,0,0,1,41.69,14a4.4,4.4,0,0,1-3.17-3.53,10.75,10.75,0,0,1-.67-.86A9,9,0,0,1,37,10a3.46,3.46,0,0,1-.22,4.74,4.38,4.38,0,0,1-.18-4.58,10.93,10.93,0,0,1-2.24.59,4,4,0,0,1-2.06,5.07,5,5,0,0,1,1.47-5,19.14,19.14,0,0,1-3.24.08c.29.84,1.26,4.38-2.32,6.06a5.85,5.85,0,0,1,2.06-6.08c-.59-.05-1.18-.11-1.79-.21s-1.21-.21-1.73-.32c.06.94,0,4.53-3.81,5.23a5.86,5.86,0,0,1,3.46-5.31,10.09,10.09,0,0,1-2.95-1.16c-.31.67-1.85,3.51-5.12,2.39A5.11,5.11,0,0,1,23.25,9a6.52,6.52,0,0,1-1.5-1.53A7.37,7.37,0,0,0,21,6.5a.43.43,0,0,0-.1-.09,3,3,0,0,1-3.95,1A3.79,3.79,0,0,1,20.28,6a6,6,0,0,0-3.46-.28,2.68,2.68,0,0,1-3.33-1.18,3.56,3.56,0,0,1,3.7.73c1-.14,2.88-.22,4,.94h0a3.61,3.61,0,0,1,.05-2.82s2.17,1.65.79,3.83a5.84,5.84,0,0,0,3,2.24,3.89,3.89,0,0,1-1.35-3.7S26.5,7,25.59,9.64a20.08,20.08,0,0,0,2.7.62,3.9,3.9,0,0,1-1.46-3.8s2.73,1.19,1.83,3.85a20.45,20.45,0,0,0,3.51.24A3.88,3.88,0,0,1,30,7s2.92.69,2.47,3.5a13.73,13.73,0,0,0,2.93-.4,4.39,4.39,0,0,1-3-3.31s3.3.08,3.55,3.17a7.93,7.93,0,0,0,1.74-.75,4.9,4.9,0,0,1-.88-2.59,2.49,2.49,0,0,1,.32-1.29,1.7,1.7,0,0,1,1.84-.91A1.63,1.63,0,0,1,40,6.21,3.62,3.62,0,0,1,38.59,9Zm.22-4.2a1.33,1.33,0,0,0-1.41.72,2.3,2.3,0,0,0-.26,1.11A4.47,4.47,0,0,0,38,9c.13-.09.27-.18.39-.28a3.25,3.25,0,0,0,1.23-2.54C39.57,5.47,39.29,5,38.81,4.84Z"/><path class="cls-4" d="M41.44,6.18a.9.9,0,1,1,.89-.89A.89.89,0,0,1,41.44,6.18Z"/><path class="cls-5" d="M48.71,5.82a1.64,1.64,0,0,1,1.06-1.75A1.69,1.69,0,0,1,51.61,5a2.62,2.62,0,0,1,.31,1.29A4.76,4.76,0,0,1,51,8.85a7.68,7.68,0,0,0,1.74.76c.25-3.09,3.56-3.17,3.56-3.17a4.39,4.39,0,0,1-3.05,3.31,13.72,13.72,0,0,0,2.92.4c-.45-2.81,2.48-3.5,2.48-3.5a3.93,3.93,0,0,1-2.18,3.51A20.45,20.45,0,0,0,60,9.92c-.91-2.66,1.83-3.85,1.83-3.85a3.91,3.91,0,0,1-1.47,3.8,20.27,20.27,0,0,0,2.71-.62c-.92-2.67,1.83-3.86,1.83-3.86a3.91,3.91,0,0,1-1.35,3.7,5.72,5.72,0,0,0,3-2.25c-1.37-2.17.8-3.82.8-3.82a3.61,3.61,0,0,1,.05,2.82h0c1.17-1.16,3.07-1.08,4.06-.94a3.56,3.56,0,0,1,3.7-.73,2.71,2.71,0,0,1-3.34,1.18,5.94,5.94,0,0,0-3.45.28A3.77,3.77,0,0,1,71.76,7a3,3,0,0,1-4-1,.81.81,0,0,0-.1.09,8.3,8.3,0,0,0-.79.93,6.66,6.66,0,0,1-1.49,1.53,5.09,5.09,0,0,1,4.88,2.55C67,12.24,65.51,9.4,65.2,8.73a9.93,9.93,0,0,1-3,1.15A5.88,5.88,0,0,1,65.7,15.2c-3.84-.7-3.87-4.29-3.81-5.23-.51.11-1.08.22-1.73.32s-1.2.16-1.78.21a5.86,5.86,0,0,1,2,6.08c-3.58-1.68-2.61-5.23-2.32-6.06a19.1,19.1,0,0,1-3.24-.09,5,5,0,0,1,1.47,5,4,4,0,0,1-2.05-5.06A11.2,11.2,0,0,1,52,9.76a4.39,4.39,0,0,1-.17,4.58,3.44,3.44,0,0,1-.22-4.74,6.34,6.34,0,0,1-.82-.43c-.2.28-.42.57-.68.87A4.38,4.38,0,0,1,47,13.57a3.38,3.38,0,0,1,2.78-3.68c.28-.33.53-.63.74-.93a4.73,4.73,0,0,1-.43-.31A3.62,3.62,0,0,1,48.71,5.82Zm.39,0a3.27,3.27,0,0,0,1.24,2.54c.12.1.25.19.38.28a4.41,4.41,0,0,0,.82-2.36,2.14,2.14,0,0,0-.27-1.11,1.3,1.3,0,0,0-1.4-.72C49.38,4.58,49.1,5.08,49.1,5.82Z"/><path class="cls-6" d="M49.1,6.6a1.62,1.62,0,0,1,1.06-1.74,1.68,1.68,0,0,1,1.84.9,2.62,2.62,0,0,1,.31,1.29,4.81,4.81,0,0,1-.88,2.59,8.14,8.14,0,0,0,1.74.75c.25-3.09,3.56-3.17,3.56-3.17a4.43,4.43,0,0,1-3,3.32,14.42,14.42,0,0,0,2.92.39c-.44-2.81,2.48-3.5,2.48-3.5a3.9,3.9,0,0,1-2.18,3.51,20.45,20.45,0,0,0,3.51-.24C59.5,8,62.24,6.85,62.24,6.85a3.91,3.91,0,0,1-1.47,3.8A20.27,20.27,0,0,0,63.48,10c-.92-2.67,1.83-3.86,1.83-3.86A3.91,3.91,0,0,1,64,9.87a5.76,5.76,0,0,0,3-2.24c-1.37-2.17.8-3.83.8-3.83a3.61,3.61,0,0,1,0,2.82h0c1.16-1.16,3.07-1.08,4-.94a3.56,3.56,0,0,1,3.7-.73,2.71,2.71,0,0,1-3.34,1.19,5.83,5.83,0,0,0-3.45.27,3.77,3.77,0,0,1,3.36,1.36,3,3,0,0,1-4-1l-.1.09a8.3,8.3,0,0,0-.79.93,6.66,6.66,0,0,1-1.49,1.53,5.13,5.13,0,0,1,4.89,2.55C67.43,13,65.9,10.18,65.59,9.51a9.79,9.79,0,0,1-3,1.16A5.84,5.84,0,0,1,66.09,16c-3.84-.7-3.87-4.29-3.8-5.23-.52.12-1.09.22-1.74.32s-1.2.17-1.78.21a5.89,5.89,0,0,1,2.06,6.09c-3.59-1.69-2.62-5.23-2.33-6.07a17.1,17.1,0,0,1-3.23-.09,5.06,5.06,0,0,1,1.47,5,4,4,0,0,1-2.06-5.07,11.2,11.2,0,0,1-2.25-.59,4.39,4.39,0,0,1-.17,4.58A3.45,3.45,0,0,1,52,10.38a7.85,7.85,0,0,1-.82-.42c-.19.27-.42.56-.68.86a4.37,4.37,0,0,1-3.16,3.53,3.39,3.39,0,0,1,2.78-3.68c.28-.32.53-.63.74-.92-.15-.11-.3-.21-.43-.32A3.65,3.65,0,0,1,49.1,6.6Zm.39,0a3.26,3.26,0,0,0,1.24,2.54c.12.1.25.19.38.28a4.41,4.41,0,0,0,.82-2.36A2.17,2.17,0,0,0,51.66,6a1.3,1.3,0,0,0-1.4-.72C49.77,5.36,49.49,5.86,49.49,6.6Z"/><path class="cls-4" d="M49.49,6.21a3.26,3.26,0,0,0,1.24,2.54,3.73,3.73,0,0,0,.38.28,4.41,4.41,0,0,0,.82-2.36,2.17,2.17,0,0,0-.27-1.11,1.3,1.3,0,0,0-1.4-.72C49.77,5,49.49,5.47,49.49,6.21Zm-.39,0a1.64,1.64,0,0,1,1.06-1.75A1.69,1.69,0,0,1,52,5.37a2.62,2.62,0,0,1,.31,1.29,4.81,4.81,0,0,1-.88,2.59,8.14,8.14,0,0,0,1.74.75c.25-3.09,3.56-3.17,3.56-3.17a4.39,4.39,0,0,1-3,3.31,13.72,13.72,0,0,0,2.92.4C56.16,7.73,59.08,7,59.08,7a3.92,3.92,0,0,1-2.18,3.51,20.45,20.45,0,0,0,3.51-.24c-.91-2.66,1.83-3.85,1.83-3.85a3.91,3.91,0,0,1-1.47,3.8,20.27,20.27,0,0,0,2.71-.62C62.56,7,65.31,5.78,65.31,5.78A3.91,3.91,0,0,1,64,9.48a5.76,5.76,0,0,0,3-2.24c-1.37-2.18.8-3.83.8-3.83a3.61,3.61,0,0,1,0,2.82h0c1.16-1.16,3.07-1.08,4-.94a3.56,3.56,0,0,1,3.7-.73,2.71,2.71,0,0,1-3.34,1.18A5.94,5.94,0,0,0,68.79,6a3.77,3.77,0,0,1,3.36,1.36,3,3,0,0,1-4-1,.81.81,0,0,0-.1.09,8.3,8.3,0,0,0-.79.93A6.66,6.66,0,0,1,65.82,9a5.11,5.11,0,0,1,4.89,2.55c-3.28,1.12-4.81-1.72-5.12-2.39a10.06,10.06,0,0,1-3,1.16,5.84,5.84,0,0,1,3.46,5.31c-3.84-.7-3.87-4.29-3.8-5.23-.52.11-1.09.22-1.74.32s-1.2.16-1.78.21A5.87,5.87,0,0,1,60.83,17c-3.59-1.68-2.62-5.22-2.33-6.06a18,18,0,0,1-3.23-.09,5,5,0,0,1,1.47,5,4,4,0,0,1-2.06-5.06,11.2,11.2,0,0,1-2.25-.59,4.39,4.39,0,0,1-.17,4.58A3.45,3.45,0,0,1,52,10a7.85,7.85,0,0,1-.82-.42c-.19.27-.42.56-.68.86A4.38,4.38,0,0,1,47.38,14a3.39,3.39,0,0,1,2.78-3.68,11.12,11.12,0,0,0,.74-.93A4.73,4.73,0,0,1,50.47,9,3.65,3.65,0,0,1,49.1,6.21Z"/><path class="cls-4" d="M44.47,7.18A1.43,1.43,0,1,1,45.9,5.75,1.43,1.43,0,0,1,44.47,7.18Z"/><path class="cls-5" d="M42.16,9.34a1,1,0,1,1,1-1A1,1,0,0,1,42.16,9.34Z"/><path class="cls-6" d="M41.88,9.9a1,1,0,1,1,1-1A1,1,0,0,1,41.88,9.9Z"/><path class="cls-4" d="M41.88,9.62a1,1,0,1,1,1-1A1,1,0,0,1,41.88,9.62Z"/><path class="cls-5" d="M47.24,5.79a.9.9,0,1,0-.9-.9A.89.89,0,0,0,47.24,5.79Z"/><path class="cls-6" d="M47.63,6.57a.9.9,0,1,0-.9-.89A.89.89,0,0,0,47.63,6.57Z"/><path class="cls-4" d="M47.63,6.18a.9.9,0,1,0-.9-.89A.89.89,0,0,0,47.63,6.18Z"/><path class="cls-5" d="M46.91,9.34a1,1,0,1,0-1-1A1,1,0,0,0,46.91,9.34Z"/><path class="cls-6" d="M47.18,9.9a1,1,0,1,0-1-1A1,1,0,0,0,47.18,9.9Z"/><path class="cls-4" d="M47.18,9.62a1,1,0,1,0-1-1A1,1,0,0,0,47.18,9.62Z"/><path class="cls-2" d="M67.22,64.48a30.24,30.24,0,0,0,0-39.9L87.13,4.68c0,7.94,0,71.76,0,79.7Z"/><path class="cls-1" d="M67.43,64.69h0l-.21-.21a30.24,30.24,0,0,0,0-39.9l.07-.07h0L87.13,4.68h0L85.54,8.5l1.58-3.81c0,8,0,71.52,0,79.64L86,81.64l1.1,2.69v0Z"/><path class="cls-4" d="M87.12,84.38v0l1.94,4.73L64.69,64.69h2.74Z"/><path class="cls-4" d="M87.12,84.33c0-8.12,0-71.67,0-79.64L89.06,0v89Z"/><path class="cls-3" d="M87.13,4.68,67.29,24.51H64.55L89.06,0V0L87.12,4.69Z"/><path class="cls-4" d="M67.22,24.58a30.24,30.24,0,0,1,0,39.9l.21.21H64.69l-.14-.14a28.31,28.31,0,0,0,0-40h2.74Z"/><path class="cls-5" d="M80.41,39c-.11-.13-.21-.28-.31-.42a10.66,10.66,0,0,0-.92.74,3.4,3.4,0,0,1-3.69,2.78A4.39,4.39,0,0,1,79,38.91c.3-.26.58-.48.86-.68a7,7,0,0,1-.43-.82,3.43,3.43,0,0,1-4.73-.21A4.36,4.36,0,0,1,79.3,37a11.81,11.81,0,0,1-.59-2.24,4,4,0,0,1-5.06-2.06,5,5,0,0,1,5,1.47A18.15,18.15,0,0,1,78.55,31c-.84.29-4.39,1.26-6.07-2.32a5.87,5.87,0,0,1,6.09,2.06c0-.59.11-1.18.2-1.79s.21-1.21.33-1.73c-.95.06-4.54,0-5.23-3.81a5.87,5.87,0,0,1,5.31,3.46,9.82,9.82,0,0,1,1.16-2.95c-.68-.31-3.52-1.85-2.4-5.12a5.09,5.09,0,0,1,2.55,4.88A6.66,6.66,0,0,1,82,22.14a9.24,9.24,0,0,0,.94-.78l.09-.11a3,3,0,0,1-1-3.95,3.79,3.79,0,0,1,1.36,3.36,5.83,5.83,0,0,0,.27-3.45,2.69,2.69,0,0,1,1.19-3.33,3.59,3.59,0,0,1-.73,3.7c.13,1,.22,2.88-1,4.05h0a3.61,3.61,0,0,1,2.82.05s-1.66,2.17-3.83.79a5.73,5.73,0,0,0-2.24,3,3.86,3.86,0,0,1,3.7-1.35S82.49,26.89,79.81,26a20.82,20.82,0,0,0-.61,2.71A3.88,3.88,0,0,1,83,27.22S81.81,30,79.14,29.05a21.51,21.51,0,0,0-.24,3.51,3.9,3.9,0,0,1,3.52-2.18s-.7,2.92-3.51,2.47a14.5,14.5,0,0,0,.4,2.93,4.41,4.41,0,0,1,3.31-3.05s-.07,3.3-3.17,3.55A7.94,7.94,0,0,0,80.21,38a4.9,4.9,0,0,1,2.58-.88,2.5,2.5,0,0,1,1.3.32A1.69,1.69,0,0,1,85,39.3a1.63,1.63,0,0,1-1.74,1.05A3.62,3.62,0,0,1,80.41,39Zm4.21.22a1.34,1.34,0,0,0-.72-1.41,2.44,2.44,0,0,0-1.11-.27,4.44,4.44,0,0,0-2.37.82c.09.13.19.27.29.39A3.23,3.23,0,0,0,83.25,40C84,40,84.48,39.68,84.62,39.2Z"/><path class="cls-5" d="M83.28,41.83a.89.89,0,1,1,.89.89A.89.89,0,0,1,83.28,41.83Z"/><path class="cls-5" d="M82.28,44.86a1.43,1.43,0,1,1,1.43,1.43A1.42,1.42,0,0,1,82.28,44.86Z"/><path class="cls-6" d="M79.63,38.59c-.11-.13-.21-.28-.31-.42a9,9,0,0,0-.92.74,3.4,3.4,0,0,1-3.69,2.78,4.39,4.39,0,0,1,3.54-3.17,9.8,9.8,0,0,1,.86-.68,6.2,6.2,0,0,1-.43-.81A3.44,3.44,0,0,1,74,36.8a4.37,4.37,0,0,1,4.57-.17,11,11,0,0,1-.59-2.25,4,4,0,0,1-5.06-2.05,5,5,0,0,1,5,1.47,18.15,18.15,0,0,1-.08-3.24c-.84.29-4.39,1.26-6.07-2.32a5.87,5.87,0,0,1,6.09,2.06c0-.59.1-1.19.2-1.79s.21-1.21.33-1.73c-.95.06-4.54,0-5.23-3.81a5.87,5.87,0,0,1,5.31,3.46,9.85,9.85,0,0,1,1.15-2.95c-.67-.31-3.51-1.85-2.39-5.12a5.09,5.09,0,0,1,2.55,4.88,6.66,6.66,0,0,1,1.53-1.49,8.21,8.21,0,0,0,.94-.79l.08-.1a3,3,0,0,1-1-3.95,3.78,3.78,0,0,1,1.36,3.37,5.88,5.88,0,0,0,.28-3.46,2.7,2.7,0,0,1,1.19-3.34,3.59,3.59,0,0,1-.74,3.71c.14,1,.23,2.88-.94,4h0a3.64,3.64,0,0,1,2.83.05s-1.66,2.17-3.83.79a5.75,5.75,0,0,0-2.25,3,3.87,3.87,0,0,1,3.7-1.35S81.7,26.5,79,25.58a20.82,20.82,0,0,0-.61,2.71,3.91,3.91,0,0,1,3.79-1.47S81,29.56,78.36,28.65a20.51,20.51,0,0,0-.24,3.51A3.91,3.91,0,0,1,81.64,30s-.7,2.92-3.51,2.47a14.3,14.3,0,0,0,.4,2.92,4.4,4.4,0,0,1,3.31-3s-.08,3.3-3.17,3.55a7.49,7.49,0,0,0,.76,1.74A4.9,4.9,0,0,1,82,36.75a2.53,2.53,0,0,1,1.3.32,1.69,1.69,0,0,1,.9,1.84A1.63,1.63,0,0,1,82.46,40,3.62,3.62,0,0,1,79.63,38.59Zm4.2.22a1.31,1.31,0,0,0-.72-1.41A2.25,2.25,0,0,0,82,37.13a4.44,4.44,0,0,0-2.36.82,3.58,3.58,0,0,0,.29.39,3.23,3.23,0,0,0,2.53,1.23C83.21,39.57,83.7,39.29,83.83,38.81Z"/><path class="cls-6" d="M82.49,41.44a.9.9,0,1,1,.9.89A.89.89,0,0,1,82.49,41.44Z"/><path class="cls-6" d="M81.49,44.47a1.43,1.43,0,1,1,1.43,1.43A1.43,1.43,0,0,1,81.49,44.47Z"/><path class="cls-4" d="M80,38.59c-.11-.13-.21-.28-.31-.42a9,9,0,0,0-.92.74,3.4,3.4,0,0,1-3.69,2.78,4.39,4.39,0,0,1,3.54-3.17,9.8,9.8,0,0,1,.86-.68,6.2,6.2,0,0,1-.43-.81,3.44,3.44,0,0,1-4.73-.22,4.36,4.36,0,0,1,4.57-.18,11.71,11.71,0,0,1-.59-2.25,4,4,0,0,1-5.06-2.05,5,5,0,0,1,5,1.47,18.15,18.15,0,0,1-.08-3.24c-.84.29-4.39,1.26-6.07-2.32a5.87,5.87,0,0,1,6.09,2.06c0-.59.11-1.19.2-1.79s.21-1.21.33-1.73c-.95.06-4.54,0-5.23-3.81a5.87,5.87,0,0,1,5.31,3.46A9.56,9.56,0,0,1,80,23.48c-.68-.31-3.52-1.85-2.4-5.12a5.09,5.09,0,0,1,2.55,4.88,6.66,6.66,0,0,1,1.53-1.49,8.21,8.21,0,0,0,.94-.79.81.81,0,0,1,.09-.1,3,3,0,0,1-1-3.95,3.78,3.78,0,0,1,1.36,3.37,5.88,5.88,0,0,0,.28-3.46,2.7,2.7,0,0,1,1.19-3.34,3.6,3.6,0,0,1-.73,3.71c.13,1,.22,2.88-1,4h0a3.64,3.64,0,0,1,2.83.05s-1.66,2.17-3.83.79a5.69,5.69,0,0,0-2.24,3,3.85,3.85,0,0,1,3.7-1.35s-1.2,2.74-3.87,1.82a20.82,20.82,0,0,0-.61,2.71,3.91,3.91,0,0,1,3.79-1.47s-1.19,2.74-3.85,1.83a20.45,20.45,0,0,0-.24,3.51A3.91,3.91,0,0,1,82,30s-.7,2.92-3.51,2.47a14.3,14.3,0,0,0,.4,2.92,4.38,4.38,0,0,1,3.31-3s-.07,3.3-3.17,3.55a7.94,7.94,0,0,0,.76,1.74,4.9,4.9,0,0,1,2.58-.88,2.53,2.53,0,0,1,1.3.32,1.69,1.69,0,0,1,.9,1.84A1.63,1.63,0,0,1,82.85,40,3.62,3.62,0,0,1,80,38.59Zm4.2.22a1.31,1.31,0,0,0-.72-1.41,2.25,2.25,0,0,0-1.11-.27A4.44,4.44,0,0,0,80,38a3.58,3.58,0,0,0,.29.39,3.23,3.23,0,0,0,2.54,1.23C83.6,39.57,84.09,39.29,84.22,38.81Z"/><path class="cls-4" d="M82.89,41.44a.89.89,0,1,1,.89.89A.89.89,0,0,1,82.89,41.44Z"/><path class="cls-5" d="M83.25,48.71a1.63,1.63,0,0,1,1.74,1,1.7,1.7,0,0,1-.9,1.85,2.63,2.63,0,0,1-1.3.31A4.9,4.9,0,0,1,80.21,51a8.16,8.16,0,0,0-.76,1.74c3.1.25,3.17,3.56,3.17,3.56a4.43,4.43,0,0,1-3.31-3.05,14.3,14.3,0,0,0-.4,2.92c2.81-.45,3.51,2.47,3.51,2.47a3.91,3.91,0,0,1-3.52-2.17A21.51,21.51,0,0,0,79.14,60c2.67-.91,3.85,1.83,3.85,1.83a3.89,3.89,0,0,1-3.79-1.47,20.45,20.45,0,0,0,.61,2.71c2.68-.92,3.87,1.82,3.87,1.82A3.88,3.88,0,0,1,80,63.57a5.7,5.7,0,0,0,2.24,3c2.17-1.38,3.83.8,3.83.8a3.66,3.66,0,0,1-2.82.05h0c1.17,1.17,1.09,3.07,1,4.06a3.59,3.59,0,0,1,.73,3.7,2.7,2.7,0,0,1-1.19-3.34,5.85,5.85,0,0,0-.28-3.45,3.77,3.77,0,0,1-1.35,3.36,3,3,0,0,1,1-4l-.09-.1a9.38,9.38,0,0,0-.94-.79,6.66,6.66,0,0,1-1.53-1.49,5.09,5.09,0,0,1-2.55,4.88c-1.12-3.27,1.72-4.8,2.4-5.12a9.71,9.71,0,0,1-1.16-2.95,5.87,5.87,0,0,1-5.31,3.46c.69-3.84,4.28-3.87,5.23-3.81-.12-.51-.23-1.09-.33-1.73s-.16-1.2-.2-1.78a5.88,5.88,0,0,1-6.09,2c1.68-3.58,5.23-2.61,6.07-2.32a18.15,18.15,0,0,1,.08-3.24,5,5,0,0,1-5,1.47,4,4,0,0,1,5.06-2.05A11.71,11.71,0,0,1,79.3,52a4.37,4.37,0,0,1-4.57-.17,3.42,3.42,0,0,1,4.73-.22,7.88,7.88,0,0,1,.43-.82c-.28-.2-.56-.42-.86-.68A4.39,4.39,0,0,1,75.49,47a3.39,3.39,0,0,1,3.69,2.78,10.43,10.43,0,0,0,.92.73c.1-.14.2-.29.31-.42A3.62,3.62,0,0,1,83.25,48.71Zm0,.39a3.26,3.26,0,0,0-2.54,1.23c-.1.12-.19.26-.29.39a4.44,4.44,0,0,0,2.37.82,2.13,2.13,0,0,0,1.1-.27,1.31,1.31,0,0,0,.73-1.4C84.48,49.38,84,49.1,83.25,49.1Z"/><path class="cls-6" d="M82.46,49.1a1.64,1.64,0,0,1,1.75,1,1.7,1.7,0,0,1-.9,1.85,2.66,2.66,0,0,1-1.3.31,4.81,4.81,0,0,1-2.58-.88,7.68,7.68,0,0,0-.76,1.74c3.09.25,3.17,3.56,3.17,3.56a4.41,4.41,0,0,1-3.31-3,14.39,14.39,0,0,0-.4,2.92c2.81-.45,3.51,2.47,3.51,2.47a3.91,3.91,0,0,1-3.52-2.17,20.45,20.45,0,0,0,.24,3.51c2.67-.91,3.85,1.83,3.85,1.83a3.89,3.89,0,0,1-3.79-1.47A20.45,20.45,0,0,0,79,63.48c2.67-.92,3.86,1.83,3.86,1.83A3.91,3.91,0,0,1,79.19,64a5.72,5.72,0,0,0,2.25,3c2.17-1.38,3.83.8,3.83.8a3.64,3.64,0,0,1-2.83,0h0c1.17,1.17,1.08,3.07.94,4.06a3.58,3.58,0,0,1,.74,3.7,2.7,2.7,0,0,1-1.19-3.34,5.94,5.94,0,0,0-.28-3.45,3.77,3.77,0,0,1-1.36,3.36,3,3,0,0,1,1-4l-.08-.1a9.38,9.38,0,0,0-.94-.79,6.66,6.66,0,0,1-1.53-1.49,5.11,5.11,0,0,1-2.55,4.89c-1.12-3.28,1.72-4.81,2.39-5.12a10,10,0,0,1-1.15-3,5.87,5.87,0,0,1-5.31,3.46c.69-3.84,4.28-3.87,5.23-3.8-.12-.52-.23-1.09-.33-1.74s-.16-1.2-.2-1.78a5.88,5.88,0,0,1-6.09,2c1.68-3.58,5.23-2.61,6.07-2.32a18.15,18.15,0,0,1,.08-3.24,5,5,0,0,1-5,1.47,4,4,0,0,1,5.06-2,11.2,11.2,0,0,1,.59-2.25A4.37,4.37,0,0,1,74,52.26,3.43,3.43,0,0,1,78.68,52a6.34,6.34,0,0,1,.43-.82,8.23,8.23,0,0,1-.86-.68,4.39,4.39,0,0,1-3.54-3.16,3.39,3.39,0,0,1,3.69,2.78,10.43,10.43,0,0,0,.92.73c.1-.14.2-.29.31-.42A3.62,3.62,0,0,1,82.46,49.1Zm0,.39a3.23,3.23,0,0,0-2.53,1.23,3.58,3.58,0,0,0-.29.39,4.44,4.44,0,0,0,2.36.82,2.14,2.14,0,0,0,1.11-.27,1.3,1.3,0,0,0,.72-1.4C83.7,49.77,83.2,49.49,82.46,49.49Z"/><path class="cls-4" d="M82.85,49.49a3.23,3.23,0,0,0-2.53,1.23,3.58,3.58,0,0,0-.29.39,4.44,4.44,0,0,0,2.36.82,2.14,2.14,0,0,0,1.11-.27,1.3,1.3,0,0,0,.72-1.4C84.09,49.77,83.59,49.49,82.85,49.49Zm0-.39a1.64,1.64,0,0,1,1.75,1A1.7,1.7,0,0,1,83.7,52a2.63,2.63,0,0,1-1.3.31,4.81,4.81,0,0,1-2.58-.88,8.16,8.16,0,0,0-.76,1.74c3.1.25,3.17,3.56,3.17,3.56a4.39,4.39,0,0,1-3.31-3,14.39,14.39,0,0,0-.4,2.92c2.81-.45,3.51,2.47,3.51,2.47a3.91,3.91,0,0,1-3.52-2.17,20.45,20.45,0,0,0,.24,3.51c2.66-.91,3.85,1.83,3.85,1.83a3.89,3.89,0,0,1-3.79-1.47,20.45,20.45,0,0,0,.61,2.71c2.67-.92,3.87,1.83,3.87,1.83A3.89,3.89,0,0,1,79.59,64a5.66,5.66,0,0,0,2.24,3c2.17-1.38,3.83.8,3.83.8a3.64,3.64,0,0,1-2.83,0h0c1.17,1.17,1.08,3.07,1,4.06a3.59,3.59,0,0,1,.73,3.7,2.7,2.7,0,0,1-1.19-3.34,5.85,5.85,0,0,0-.28-3.45,3.77,3.77,0,0,1-1.36,3.36,3,3,0,0,1,1-4,.81.81,0,0,1-.09-.1,9.38,9.38,0,0,0-.94-.79,6.66,6.66,0,0,1-1.53-1.49,5.11,5.11,0,0,1-2.55,4.89c-1.12-3.28,1.72-4.81,2.39-5.13a9.85,9.85,0,0,1-1.15-2.95,5.87,5.87,0,0,1-5.31,3.46c.69-3.84,4.28-3.87,5.23-3.8-.12-.52-.23-1.09-.33-1.74s-.16-1.2-.2-1.78a5.88,5.88,0,0,1-6.09,2c1.68-3.58,5.23-2.61,6.07-2.32a18.15,18.15,0,0,1,.08-3.24,5,5,0,0,1-5,1.47,4,4,0,0,1,5.06-2,11.2,11.2,0,0,1,.59-2.25,4.37,4.37,0,0,1-4.57-.17A3.43,3.43,0,0,1,79.07,52a6.34,6.34,0,0,1,.43-.82,8.23,8.23,0,0,1-.86-.68,4.39,4.39,0,0,1-3.54-3.16,3.39,3.39,0,0,1,3.69,2.78,10.43,10.43,0,0,0,.92.73c.1-.14.2-.29.31-.42A3.62,3.62,0,0,1,82.85,49.1Z"/><path class="cls-4" d="M81.89,44.47a1.43,1.43,0,0,1,2.85,0,1.43,1.43,0,1,1-2.85,0Z"/><path class="cls-5" d="M79.72,42.15a1,1,0,1,1,1,1A1,1,0,0,1,79.72,42.15Z"/><path class="cls-6" d="M79.17,41.88a1,1,0,1,1,1,1A1,1,0,0,1,79.17,41.88Z"/><path class="cls-4" d="M79.44,41.88a1,1,0,1,1,1,1A1,1,0,0,1,79.44,41.88Z"/><path class="cls-5" d="M83.28,47.23a.89.89,0,1,0,.89-.89A.89.89,0,0,0,83.28,47.23Z"/><path class="cls-6" d="M82.49,47.62a.9.9,0,1,0,.9-.89A.9.9,0,0,0,82.49,47.62Z"/><path class="cls-4" d="M82.89,47.62a.89.89,0,1,0,.89-.89A.89.89,0,0,0,82.89,47.62Z"/><path class="cls-5" d="M79.72,46.91a1,1,0,1,0,1-1A1,1,0,0,0,79.72,46.91Z"/><path class="cls-6" d="M79.17,47.18a1,1,0,1,0,1-1A1,1,0,0,0,79.17,47.18Z"/><path class="cls-4" d="M79.44,47.18a1,1,0,1,0,1-1A1,1,0,0,0,79.44,47.18Z"/><path class="cls-2" d="M63.18,25.88a26.37,26.37,0,1,1-37.29,0A26.41,26.41,0,0,1,63.18,25.88Z"/><path class="cls-6" d="M28.51,45.15c8,4.16,14.42,1.78,3.16-1.17,11.26-2.95,4.81-5.34-3.16-1.17-8-4.17-14.42-1.78-3.17,1.17C14.09,46.93,20.54,49.31,28.51,45.15Z"/><path class="cls-6" d="M34,56.14c8.58-2.69,11.45-9,1.41-3.07,5.88-10-.38-7.17-3.07,1.41-8.57,2.69-11.45,9-1.41,3.07C25.09,67.59,31.34,64.71,34,56.14Z"/><path class="cls-6" d="M45.7,60c4.17-8,1.78-14.42-1.17-3.16C41.59,45.58,39.2,52,43.36,60c-4.16,8-1.77,14.43,1.17,3.17C47.48,74.43,49.87,68,45.7,60Z"/><path class="cls-6" d="M56.69,54.48C54,45.9,47.75,43,53.62,53.07c-10-5.88-7.16.38,1.42,3.07,2.68,8.57,8.94,11.45,3.06,1.41C68.15,63.43,65.27,57.17,56.69,54.48Z"/><path class="cls-6" d="M60.56,42.81c-8-4.17-14.43-1.78-3.17,1.17-11.26,3-4.8,5.33,3.17,1.17,8,4.16,14.42,1.78,3.16-1.17C75,41,68.52,38.64,60.56,42.81Z"/><path class="cls-6" d="M55,31.82c-8.58,2.69-11.46,8.94-1.42,3.07-5.87,10,.38,7.16,3.07-1.42,8.58-2.68,11.46-8.94,1.41-3.06C64,20.37,57.72,23.24,55,31.82Z"/><path class="cls-6" d="M43.36,28c-4.16,8-1.77,14.42,1.17,3.16,2.95,11.26,5.34,4.8,1.17-3.17,4.17-8,1.78-14.42-1.17-3.16C41.59,13.53,39.2,20,43.36,28Z"/><path class="cls-6" d="M32.37,33.48c2.69,8.57,9,11.45,3.07,1.41,10,5.87,7.17-.38-1.41-3.07-2.69-8.58-8.94-11.45-3.07-1.41C20.92,24.53,23.8,30.79,32.37,33.48Z"/><path class="cls-5" d="M28.51,46.26c8,4.16,14.42,1.77,3.16-1.18,11.26-2.94,4.8-5.33-3.16-1.17-8-4.16-14.42-1.77-3.17,1.17C14.09,48,20.54,50.42,28.51,46.26Z"/><path class="cls-5" d="M34,57.24c8.58-2.69,11.45-8.94,1.41-3.06,5.88-10-.38-7.17-3.07,1.41C23.8,58.28,20.92,64.53,31,58.65,25.09,68.7,31.34,65.82,34,57.24Z"/><path class="cls-5" d="M45.7,61.11c4.17-8,1.78-14.43-1.17-3.17-2.94-11.26-5.33-4.8-1.17,3.17-4.16,8-1.77,14.42,1.17,3.17C47.48,75.53,49.87,69.07,45.7,61.11Z"/><path class="cls-5" d="M56.69,55.59C54,47,47.75,44.13,53.62,54.18c-10-5.88-7.16.37,1.42,3.06C57.72,65.82,64,68.7,58.1,58.65,68.15,64.53,65.27,58.28,56.69,55.59Z"/><path class="cls-5" d="M60.56,43.91c-8-4.16-14.43-1.77-3.17,1.17-11.26,3-4.8,5.34,3.17,1.18,8,4.16,14.42,1.77,3.16-1.18C75,42.14,68.52,39.75,60.56,43.91Z"/><path class="cls-5" d="M55,32.93c-8.58,2.68-11.46,8.94-1.42,3.06-5.87,10,.38,7.17,3.07-1.41,8.58-2.69,11.46-8.94,1.41-3.06C64,21.47,57.72,24.35,55,32.93Z"/><path class="cls-5" d="M43.36,29.06c-4.16,8-1.77,14.42,1.17,3.16,2.95,11.26,5.34,4.81,1.17-3.16,4.17-8,1.78-14.42-1.17-3.17C41.59,14.64,39.2,21.09,43.36,29.06Z"/><path class="cls-5" d="M32.37,34.58c2.69,8.58,9,11.46,3.07,1.41,10,5.88,7.17-.37-1.41-3.06-2.69-8.58-8.94-11.46-3.07-1.41C20.92,25.64,23.8,31.89,32.37,34.58Z"/><path class="cls-4" d="M28.51,45.7c8,4.17,14.42,1.78,3.16-1.17,11.26-3,4.81-5.33-3.16-1.17-8-4.16-14.42-1.78-3.17,1.17C14.09,47.48,20.54,49.87,28.51,45.7Z"/><path class="cls-4" d="M34,56.69c8.58-2.69,11.45-8.94,1.41-3.07,5.88-10-.38-7.16-3.07,1.41C23.8,57.72,20.92,64,31,58.1,25.09,68.14,31.34,65.27,34,56.69Z"/><path class="cls-4" d="M45.7,60.55c4.17-8,1.78-14.42-1.17-3.16-2.94-11.26-5.33-4.8-1.17,3.17-4.16,8-1.77,14.42,1.17,3.16C47.48,75,49.87,68.52,45.7,60.55Z"/><path class="cls-4" d="M56.69,55c-2.69-8.57-8.94-11.45-3.07-1.41-10-5.87-7.16.38,1.42,3.07C57.72,65.27,64,68.14,58.1,58.1,68.14,64,65.27,57.72,56.69,55Z"/><path class="cls-4" d="M60.56,43.36c-8-4.16-14.43-1.78-3.17,1.17-11.26,2.95-4.8,5.34,3.17,1.17,8,4.17,14.42,1.78,3.16-1.17C75,41.59,68.52,39.2,60.56,43.36Z"/><path class="cls-4" d="M55,32.37c-8.58,2.69-11.46,9-1.42,3.07-5.87,10,.38,7.17,3.07-1.41,8.58-2.69,11.46-8.94,1.41-3.07C64,20.92,57.72,23.8,55,32.37Z"/><path class="cls-4" d="M43.36,28.51c-4.16,8-1.77,14.42,1.17,3.16,2.95,11.26,5.34,4.8,1.17-3.16,4.17-8,1.78-14.43-1.17-3.17C41.59,14.08,39.2,20.54,43.36,28.51Z"/><path class="cls-4" d="M32.37,34c2.69,8.58,9,11.45,3.07,1.41,10.05,5.88,7.17-.38-1.41-3.07C31.34,23.8,25.09,20.92,31,31,20.92,25.08,23.8,31.34,32.37,34Z"/><path class="cls-6" d="M41.72,44.82c-1.85-.23-1.85-1.45,0-1.69-4.22-3.62-1.66-6.19,2-2,.23-1.85,1.45-1.85,1.69,0,3.62-4.23,6.19-1.66,2,2,1.86.24,1.86,1.46,0,1.69,4.23,3.63,1.66,6.2-2,2-.24,1.85-1.46,1.85-1.69,0C40.06,51,37.49,48.45,41.72,44.82Z"/><path class="cls-5" d="M41.73,45.93c-1.86-.23-1.86-1.46,0-1.69-4.22-3.63-1.66-6.19,2-2,.23-1.86,1.46-1.86,1.69,0,3.62-4.23,6.19-1.67,2,2,1.86.23,1.86,1.46,0,1.69,4.23,3.62,1.66,6.19-2,2-.23,1.86-1.46,1.86-1.69,0C40.06,52.12,37.5,49.55,41.73,45.93Z"/><path class="cls-4" d="M43.78,45.29c-.79,4.59,2.3,4.59,1.51,0,4.59.78,4.59-2.3,0-1.51.79-4.6-2.3-4.6-1.51,0C39.18,43,39.18,46.07,43.78,45.29Z"/><path class="cls-5" d="M44.53,46.8c4.33,6.12,7.84,2.61,1.72-1.72,6.12-4.32,2.61-7.83-1.72-1.71-4.32-6.12-7.83-2.61-1.72,1.71C36.7,49.41,40.21,52.92,44.53,46.8Z"/><path class="cls-6" d="M44.53,45.7c4.33,6.11,7.84,2.6,1.72-1.72,6.11-4.33,2.61-7.83-1.72-1.72-4.32-6.11-7.83-2.61-1.72,1.72C36.7,48.3,40.21,51.81,44.53,45.7Z"/><path class="cls-4" d="M44.53,46.25c4.33,6.11,7.84,2.61,1.72-1.72,6.11-4.32,2.61-7.83-1.72-1.72-4.32-6.11-7.83-2.6-1.72,1.72C36.7,48.86,40.21,52.36,44.53,46.25Z"/><path class="cls-5" d="M39,32a1.85,1.85,0,1,0-2.42-1A1.84,1.84,0,0,0,39,32Z"/><path class="cls-5" d="M49.87,32a1.85,1.85,0,1,0-1-2.41A1.84,1.84,0,0,0,49.87,32Z"/><path class="cls-5" d="M57.59,39.57a1.85,1.85,0,1,0,1-2.42A1.84,1.84,0,0,0,57.59,39.57Z"/><path class="cls-5" d="M57.67,50.42a1.85,1.85,0,1,0,2.4-1A1.85,1.85,0,0,0,57.67,50.42Z"/><path class="cls-5" d="M50.05,58.15a1.84,1.84,0,0,0,1.43,3.4,1.84,1.84,0,1,0-1.43-3.4Z"/><path class="cls-5" d="M39.2,58.22a1.85,1.85,0,1,0,1,2.4A1.85,1.85,0,0,0,39.2,58.22Z"/><path class="cls-5" d="M31.47,50.6a1.85,1.85,0,1,0-1,2.42A1.84,1.84,0,0,0,31.47,50.6Z"/><path class="cls-5" d="M31.4,39.75a1.85,1.85,0,1,0-2.41,1A1.84,1.84,0,0,0,31.4,39.75Z"/><path class="cls-6" d="M39,30.92a1.85,1.85,0,1,0-2.42-1A1.85,1.85,0,0,0,39,30.92Z"/><path class="cls-6" d="M49.87,30.84a1.85,1.85,0,1,0-1-2.4A1.85,1.85,0,0,0,49.87,30.84Z"/><path class="cls-6" d="M57.59,38.46a1.84,1.84,0,1,0,1-2.41A1.84,1.84,0,0,0,57.59,38.46Z"/><path class="cls-6" d="M57.67,49.32a1.84,1.84,0,1,0,2.4-1A1.85,1.85,0,0,0,57.67,49.32Z"/><path class="cls-6" d="M50.05,57a1.84,1.84,0,1,0,2.42,1A1.84,1.84,0,0,0,50.05,57Z"/><path class="cls-6" d="M39.2,57.12a1.84,1.84,0,1,0,1,2.4A1.85,1.85,0,0,0,39.2,57.12Z"/><path class="cls-6" d="M31.4,38.64a1.84,1.84,0,1,0-2.41,1A1.85,1.85,0,0,0,31.4,38.64Z"/><path class="cls-4" d="M39,31.47a1.85,1.85,0,1,0-2.42-1A1.85,1.85,0,0,0,39,31.47Z"/><path class="cls-4" d="M49.87,31.39a1.84,1.84,0,1,0-1-2.4A1.84,1.84,0,0,0,49.87,31.39Z"/><path class="cls-4" d="M57.6,39a1.84,1.84,0,1,0,1-2.42A1.85,1.85,0,0,0,57.6,39Z"/><path class="cls-4" d="M57.67,49.87a1.85,1.85,0,1,0,2.4-1A1.85,1.85,0,0,0,57.67,49.87Z"/><path class="cls-4" d="M50.05,57.59a1.84,1.84,0,1,0,2.42,1A1.84,1.84,0,0,0,50.05,57.59Z"/><path class="cls-4" d="M39.2,57.67a1.85,1.85,0,1,0,1,2.4A1.84,1.84,0,0,0,39.2,57.67Z"/><path class="cls-4" d="M31.47,50.05a1.84,1.84,0,1,0-1,2.41A1.84,1.84,0,0,0,31.47,50.05Z"/><path class="cls-4" d="M31.4,39.2a1.85,1.85,0,1,0-2.41,1A1.85,1.85,0,0,0,31.4,39.2Z"/><path class="cls-7" d="M38.8,31a1.29,1.29,0,1,0-1.69-.69A1.29,1.29,0,0,0,38.8,31Z"/><path class="cls-7" d="M50.08,30.88a1.29,1.29,0,1,0-.71-1.68A1.29,1.29,0,0,0,50.08,30.88Z"/><path class="cls-7" d="M58.1,38.8a1.29,1.29,0,1,0,2.38-1,1.29,1.29,0,0,0-2.38,1Z"/><path class="cls-7" d="M58.18,50.08a1.29,1.29,0,1,0,1.68-.71A1.29,1.29,0,0,0,58.18,50.08Z"/><path class="cls-7" d="M50.26,58.1a1.3,1.3,0,0,0-.68,1.7,1.29,1.29,0,0,0,1.69.68,1.29,1.29,0,1,0-1-2.38Z"/><path class="cls-7" d="M39,58.18a1.29,1.29,0,1,0,.71,1.68A1.29,1.29,0,0,0,39,58.18Z"/><path class="cls-7" d="M31,50.26a1.29,1.29,0,0,0-2.38,1,1.29,1.29,0,1,0,2.38-1Z"/><path class="cls-7" d="M30.88,39a1.29,1.29,0,1,0-1.68.71A1.29,1.29,0,0,0,30.88,39Z"/><path class="cls-7" d="M43.11,44.53a1.42,1.42,0,1,0,1.42-1.42A1.43,1.43,0,0,0,43.11,44.53Z"/></pattern></defs><path class="cls-8" d="M42.19,188.08c.33-24.53,7.38-47.86,17.79-70.29C76.58,82,99.52,50.45,125.41,20.92c4.92-5.62,10.07-11.06,15.25-16.44,3.13-3.25,5.79-3.33,8.86-.11,36.56,38.33,68.31,79.95,87.67,129.87,7,18.08,11.22,36.81,10.9,56.33-.52,31.11-13.4,56.28-37.09,76.1-18.14,15.18-39.19,24.95-61.43,32.35a14.6,14.6,0,0,1-8.63.05c-24.61-8.21-47.75-19.2-66.95-37.18C52.81,242.05,42.3,217.54,42.19,188.08Zm169.27,65.69c22.13-21.72,29.9-47.9,26.64-77.79-2.41-22.12-10.1-42.6-20-62.32-16.56-33-38.47-62.31-62.91-89.81-1.65-1.85-3.39-3.61-5.67-6,0,18.63,0,36.27-.05,53.91A8.43,8.43,0,0,0,152,77.85c10.9,12.28,22.1,24.33,32.37,37.13,14.48,18.07,26.51,37.72,34,59.84C225,194.56,227,214.58,220,234.68,217.75,241.08,214.47,247.11,211.46,253.77Zm-131.86.65c.14-.39.22-.51.19-.56-.3-.53-.61-1.06-.94-1.57A78,78,0,0,1,66.11,209.2C66,189.58,72,171.56,80.69,154.32c14.5-28.64,34.89-52.89,56.92-75.91a9.76,9.76,0,0,0,2.6-6c.2-16.55.11-33.1.09-49.66,0-1.17-.11-2.34-.22-4.62-1.43,1.72-2.16,2.68-3,3.57A465.47,465.47,0,0,0,93.15,77.8c-15.84,23.91-29.38,49-36.85,76.88-6,22.48-7.34,45,1.16,67.21A88,88,0,0,0,79.6,254.42Zm30.32-129.49c-14.76,20.26-27.28,41.14-32.59,65.61-3.26,15.07-2.83,30,2.92,44.43a67.44,67.44,0,0,0,16.27,24.26,68,68,0,0,1-4.7-40.63c3.22-18.1,11.28-34.09,21.34-49.18,5.21-7.82,10.94-15.3,16.58-23.14ZM194.19,259.2c.43-.41,1-.87,1.47-1.4,16.28-18.06,22.14-39.15,18.16-63-3.25-19.46-11.69-36.81-22.09-53.31-3.49-5.53-7.3-10.86-11.17-16.58-7.06,7.6-13.61,14.65-20.21,21.77l1.6,2c11.42,14.18,21.76,29.05,29.08,45.82,6.73,15.43,10.66,31.38,7.68,48.3C197.72,248.35,195.71,253.76,194.19,259.2Zm-49-44.28c9.61-10.37,18.87-20.31,28-30.35a3.32,3.32,0,0,0,.56-3c-6.29-9.41-12.73-18.73-19.19-28.14-9.54,8-9.54,8-18.72-.06l-20.67,29.25Zm-29.86-97.75,29.85,32.13,29.85-32.12L145.15,83.49Zm33.32,152.77c.67-.23.95-.25,1.09-.39q19.62-20.62,39.18-41.3a4.23,4.23,0,0,0,1.05-2.91c-1-11.87-5.09-22.8-10.58-33.69-10.15,11-20,21.62-29.89,32.34a4.29,4.29,0,0,0-.82,2.66C148.66,241,148.68,255.29,148.68,269.94Zm-9.35-1.76c0-11.1-.77-21.17.21-31.08,1.07-10.83-2.24-18.88-10.28-26-6.53-5.81-12.07-12.75-18.32-19.48-5.58,10.92-9.47,21.88-10.68,33.7a3.64,3.64,0,0,0,.88,2.58C113.57,241.06,126.05,254.19,139.33,268.18Zm9.2,18.65c19.89-6.28,41-29.88,40.36-45-13.27,14-26.34,27.76-39.33,41.6C148.89,284.1,148.91,285.46,148.53,286.83Zm-10-1.16,1.35-.79c-.81-1.72-1.25-3.79-2.48-5.13-8.72-9.43-17.61-18.72-26.45-28.06-3.16-3.34-6.35-6.67-9.52-10C105.46,263.55,119.84,276.46,138.49,285.67Z" transform="translate(-42.19 -2)"/><path class="cls-9" d="M211.46,253.77c3-6.66,6.29-12.69,8.53-19.09,7-20.1,5-40.12-1.68-59.86-7.45-22.12-19.48-41.77-34-59.84-10.27-12.8-21.47-24.85-32.37-37.13a8.43,8.43,0,0,1-2.51-6.12c.1-17.64.05-35.28.05-53.91,2.28,2.42,4,4.18,5.67,6,24.44,27.5,46.35,56.79,62.91,89.81,9.9,19.72,17.59,40.2,20,62.32C241.36,205.87,233.59,232.05,211.46,253.77Z" transform="translate(-42.19 -2)"/><path class="cls-9" d="M79.6,254.42a88,88,0,0,1-22.14-32.53c-8.5-22.25-7.17-44.73-1.16-67.21,7.47-27.91,21-53,36.85-76.88A465.47,465.47,0,0,1,137.1,21.7c.82-.89,1.55-1.85,3-3.57.11,2.28.22,3.45.22,4.62,0,16.56.11,33.11-.09,49.66a9.76,9.76,0,0,1-2.6,6c-22,23-42.42,47.27-56.92,75.91C72,171.56,66,189.58,66.11,209.2a78,78,0,0,0,12.74,43.09c.33.51.64,1,.94,1.57C79.82,253.91,79.74,254,79.6,254.42Z" transform="translate(-42.19 -2)"/><path class="cls-9" d="M109.92,124.93l19.82,21.35c-5.64,7.84-11.37,15.32-16.58,23.14C103.1,184.51,95,200.5,91.82,218.6a68,68,0,0,0,4.7,40.63A67.44,67.44,0,0,1,80.25,235c-5.75-14.48-6.18-29.36-2.92-44.43C82.64,166.07,95.16,145.19,109.92,124.93Z" transform="translate(-42.19 -2)"/><path class="cls-9" d="M194.19,259.2c1.52-5.44,3.53-10.85,4.52-16.44,3-16.92-1-32.87-7.68-48.3-7.32-16.77-17.66-31.64-29.08-45.82l-1.6-2c6.6-7.12,13.15-14.17,20.21-21.77,3.87,5.72,7.68,11,11.17,16.58,10.4,16.5,18.84,33.85,22.09,53.31,4,23.87-1.88,45-18.16,63C195.18,258.33,194.62,258.79,194.19,259.2Z" transform="translate(-42.19 -2)"/><path class="cls-9" d="M145.22,214.92l-30-32.33,20.67-29.25c9.18,8.1,9.18,8.1,18.72.06,6.46,9.41,12.9,18.73,19.19,28.14a3.32,3.32,0,0,1-.56,3C164.09,194.61,154.83,204.55,145.22,214.92Z" transform="translate(-42.19 -2)"/><path class="cls-9" d="M115.36,117.17l29.79-33.68,29.91,33.69L145.21,149.3Z" transform="translate(-42.19 -2)"/><path class="cls-9" d="M148.68,269.94c0-14.65,0-29,0-43.29a4.29,4.29,0,0,1,.82-2.66c9.84-10.72,19.74-21.38,29.89-32.34,5.49,10.89,9.54,21.82,10.58,33.69a4.23,4.23,0,0,1-1.05,2.91q-19.53,20.7-39.18,41.3C149.63,269.69,149.35,269.71,148.68,269.94Z" transform="translate(-42.19 -2)"/><path class="cls-9" d="M139.33,268.18c-13.28-14-25.76-27.12-38.19-40.3a3.64,3.64,0,0,1-.88-2.58c1.21-11.82,5.1-22.78,10.68-33.7,6.25,6.73,11.79,13.67,18.32,19.48,8,7.14,11.35,15.19,10.28,26C138.56,247,139.33,257.08,139.33,268.18Z" transform="translate(-42.19 -2)"/><path class="cls-9" d="M148.53,286.83c.38-1.37.36-2.73,1-3.43,13-13.84,26.06-27.61,39.33-41.6C189.56,257,168.42,280.55,148.53,286.83Z" transform="translate(-42.19 -2)"/><path class="cls-9" d="M138.49,285.67c-18.65-9.21-33-22.12-37.1-44,3.17,3.33,6.36,6.66,9.52,10,8.84,9.34,17.73,18.63,26.45,28.06,1.23,1.34,1.67,3.41,2.48,5.13Z" transform="translate(-42.19 -2)"/></svg>