<?xml version="1.0" encoding="utf-8"?>
<!-- Generator: Adobe Illustrator 26.0.3, SVG Export Plug-In . SVG Version: 6.00 Build 0)  -->
<svg version="1.1" id="Layer_1" xmlns="http://www.w3.org/2000/svg" xmlns:xlink="http://www.w3.org/1999/xlink" x="0px" y="0px"
	 viewBox="0 0 300 300" style="enable-background:new 0 0 300 300;" xml:space="preserve">
<style type="text/css">
	.st0{fill:#006600;}
</style>
<path class="st0" d="M49,188.5c3.3-70.4,50.6-130.3,96.6-180.1c3.1-3.2,5.7-3.3,8.7-0.1C200.8,58.8,249.1,119.2,251,191
	c0.7,55.4-48.1,91.6-96.6,106.4C101.7,291.1,47.3,245.6,49,188.5z M215.1,253c68.2-72.7-8.8-173-60.8-231.5c0,18.3,0,35.6-0.1,52.9
	c0,2.5,0.8,4.2,2.5,6C198.8,125.1,252.1,190,215.1,253z M85.7,253.6c-38-61.3,14.7-128.7,56.9-172.7c1.4-1.5,2.5-3.9,2.6-5.9
	c0.1-17.9,0.4-35.3-0.1-53.3C93.8,80.7,16.1,181.6,85.7,253.6z M115.4,126.6C87,163.1,63,220.9,102.3,258.3
	c-17.8-39.8,9-79.9,32.6-110.8C128.6,140.7,122.2,133.9,115.4,126.6z M198.1,258.3c38.8-38.1,14.8-94.9-13.4-131.8
	c-6.9,7.5-13.3,14.4-19.8,21.4C189.8,178.1,214.4,218.4,198.1,258.3z M150.1,214.9c9.4-10.2,18.5-19.9,27.5-29.8
	c3.4-3.2-15.7-25.1-18.3-30.6c-9.4,7.9-9.4,7.9-18.4-0.1c-6.8,9.6-13.5,19.2-20.3,28.7C130.7,194,140.3,204.3,150.1,214.9z
	 M120.8,119c10,10.8,19.6,21.1,29.3,31.5c9.8-10.5,19.4-20.9,29.3-31.5c-9.8-11.1-19.4-21.8-29.3-33
	C139.9,97.3,130.4,108.1,120.8,119z M153.5,268.8c13.9-12.5,26.2-27.5,39.5-40.9c3-10.8-4.8-25.5-9.3-35.9
	C146.6,232.5,153.8,214.1,153.5,268.8z M144.3,267.1c-1.2-51.3,8-37-27.9-75.1c-4.8,10.9-11.9,24.1-9.6,35.6
	C119,240.5,131.3,253.4,144.3,267.1z M153.3,285.4c19.5-6.2,40.3-29.3,39.6-44.2c-13,13.7-25.8,27.2-38.6,40.8
	C153.7,282.7,153.7,284.1,153.3,285.4z M143.5,284.3c0.4-0.3,0.9-0.5,1.3-0.8c-0.8-1.7-1.2-3.7-2.4-5
	c-11.6-12.6-23.5-24.9-35.3-37.3C111.1,262.6,125.2,275.2,143.5,284.3z"/>
</svg>
