<svg id="Layer_1" data-name="Layer 1" xmlns="http://www.w3.org/2000/svg" viewBox="0 0 300 300"><defs><style>.cls-1{fill:#f33;}</style></defs><path class="cls-1" d="M216.32,252.92c3-6.66,6.28-12.69,8.53-19.09,7-20.1,5-40.12-1.68-59.86-7.45-22.12-19.48-41.77-34-59.84C178.9,101.33,167.7,89.28,156.8,77a8.37,8.37,0,0,1-2.51-6.12c.1-17.64.05-35.28.05-53.91,2.28,2.42,4,4.18,5.67,6,24.44,27.5,46.35,56.79,62.91,89.81,9.9,19.72,17.59,40.2,20,62.32C246.22,205,238.44,231.2,216.32,252.92Z"/><path class="cls-1" d="M84.45,253.57A88.17,88.17,0,0,1,62.31,221c-8.5-22.25-7.16-44.73-1.16-67.21,7.47-27.91,21-53,36.85-76.88a465.31,465.31,0,0,1,44-56.1c.82-.89,1.55-1.85,3-3.57.11,2.28.22,3.45.22,4.62,0,16.56.11,33.11-.09,49.66a9.75,9.75,0,0,1-2.6,6c-22,23-42.42,47.27-56.92,75.91-8.72,17.24-14.72,35.26-14.6,54.88A78,78,0,0,0,83.7,251.44l1,1.57A2,2,0,0,0,84.45,253.57Z"/><path class="cls-1" d="M114.77,124.08l19.82,21.35c-5.64,7.84-11.37,15.32-16.58,23.14-10,15.09-18.16,31.08-21.34,49.18a68.07,68.07,0,0,0,4.7,40.63A67.36,67.36,0,0,1,85.1,234.15c-5.75-14.48-6.18-29.36-2.91-44.43C87.49,165.22,100,144.34,114.77,124.08Z"/><path class="cls-1" d="M199.05,258.35c1.52-5.44,3.53-10.85,4.52-16.44,3-16.92-1-32.87-7.68-48.3-7.32-16.77-17.66-31.64-29.08-45.82l-1.6-2L185.41,124c3.87,5.72,7.68,11,11.17,16.58,10.4,16.5,18.84,33.85,22.09,53.31,4,23.87-1.88,45-18.16,63A20.11,20.11,0,0,1,199.05,258.35Z"/><path class="cls-1" d="M150.08,214.07l-30-32.33,20.66-29.25c9.19,8.1,9.19,8.1,18.73.06,6.46,9.41,12.89,18.73,19.19,28.14a3.33,3.33,0,0,1-.56,3C168.94,193.76,159.69,203.7,150.08,214.07Z"/><path class="cls-1" d="M120.22,116.32,150,82.64l29.91,33.69-29.84,32.12Z"/><path class="cls-1" d="M153.53,269.09V225.8a4.37,4.37,0,0,1,.82-2.66c9.84-10.72,19.75-21.38,29.89-32.34,5.5,10.89,9.54,21.82,10.59,33.69a4.21,4.21,0,0,1-1.06,2.91q-19.52,20.7-39.18,41.3C154.49,268.84,154.21,268.86,153.53,269.09Z"/><path class="cls-1" d="M144.19,267.33c-13.28-14-25.77-27.12-38.2-40.3a3.62,3.62,0,0,1-.87-2.58c1.21-11.82,5.1-22.78,10.68-33.7,6.25,6.73,11.79,13.67,18.32,19.48,8,7.14,11.35,15.19,10.28,26C143.41,246.15,144.19,256.23,144.19,267.33Z"/><path class="cls-1" d="M153.38,286c.39-1.37.36-2.73,1-3.43,13-13.84,26.06-27.61,39.34-41.6C194.41,256.15,173.27,279.7,153.38,286Z"/><path class="cls-1" d="M143.35,284.82c-18.65-9.21-33-22.12-37.1-44,3.17,3.33,6.36,6.66,9.52,10,8.83,9.34,17.72,18.63,26.45,28.06,1.22,1.34,1.66,3.41,2.47,5.13Z"/></svg>