<svg id="Layer_1" data-name="Layer 1" xmlns="http://www.w3.org/2000/svg" viewBox="0 0 300 300"><defs><style>.cls-1{fill:#fff;}.cls-2{fill:#f33;}</style></defs><path class="cls-1" d="M47,187.23c.34-24.53,7.38-47.86,17.79-70.29,16.61-35.79,39.54-67.34,65.44-96.87C135.19,14.45,140.34,9,145.52,3.63c3.13-3.25,5.78-3.33,8.86-.11,36.56,38.33,68.31,80,87.67,129.87,7,18.08,11.22,36.81,10.89,56.33-.52,31.11-13.39,56.28-37.09,76.1-18.13,15.18-39.19,24.95-61.42,32.35a14.59,14.59,0,0,1-8.63.05C121.19,290,98.05,279,78.85,261,57.67,241.2,47.15,216.69,47,187.23Zm169.28,65.69c22.13-21.72,29.9-47.9,26.64-77.79-2.41-22.12-10.11-42.6-20-62.32C206.4,79.81,184.49,50.5,160.05,23c-1.65-1.85-3.39-3.61-5.67-6,0,18.63,0,36.27,0,53.91A8.43,8.43,0,0,0,156.85,77c10.9,12.28,22.11,24.33,32.37,37.13,14.48,18.07,26.51,37.72,34,59.84,6.63,19.74,8.63,39.76,1.63,59.86C222.6,240.23,219.33,246.26,216.32,252.92Zm-131.86.65c.14-.39.22-.51.19-.56-.3-.53-.61-1.06-.94-1.57A77.86,77.86,0,0,1,71,208.35c-.12-19.62,5.88-37.64,14.58-54.88,14.5-28.64,34.89-52.89,56.92-75.91a9.81,9.81,0,0,0,2.6-6c.2-16.55.11-33.1.09-49.66,0-1.17-.11-2.34-.22-4.62-1.43,1.72-2.17,2.68-3,3.57A464.53,464.53,0,0,0,98,77c-15.85,23.91-29.38,49-36.85,76.88-6,22.48-7.34,45,1.16,67.21A87.83,87.83,0,0,0,84.46,253.57Zm30.32-129.49C100,144.34,87.5,165.22,82.19,189.69c-3.27,15.07-2.84,30,2.91,44.43a67.37,67.37,0,0,0,16.28,24.26,67.92,67.92,0,0,1-4.7-40.63C99.9,199.65,108,183.66,118,168.57c5.21-7.82,10.94-15.3,16.58-23.14Zm84.27,134.27c.42-.41,1-.87,1.47-1.4,16.28-18.06,22.14-39.15,18.16-63-3.25-19.46-11.69-36.81-22.09-53.31-3.49-5.53-7.3-10.86-11.17-16.58-7.06,7.6-13.61,14.65-20.21,21.77l1.6,2c11.42,14.18,21.76,29,29.08,45.82,6.73,15.43,10.66,31.38,7.68,48.3C202.58,247.5,200.57,252.91,199.05,258.35Zm-49-44.28c9.61-10.37,18.86-20.31,28-30.35a3.3,3.3,0,0,0,.55-3c-6.28-9.41-12.72-18.73-19.19-28.14-9.53,8-9.53,8-18.72-.06L120,181.77Zm-29.86-97.75L150,148.45l29.85-32.12L150,82.64ZM153.5,269.09c.67-.23.95-.25,1.09-.39q19.62-20.62,39.18-41.3a4.2,4.2,0,0,0,1-2.91c-1-11.87-5.09-22.8-10.58-33.69-10.15,11-20,21.62-29.89,32.34a4.37,4.37,0,0,0-.82,2.66c0,14.35,0,28.64,0,43.29Zm-9.35-1.76c0-11.1-.77-21.17.21-31.08,1.08-10.83-2.24-18.88-10.28-26-6.53-5.81-12.07-12.75-18.32-19.48-5.58,10.92-9.47,21.88-10.68,33.7a3.68,3.68,0,0,0,.88,2.58c12.46,13.16,25,26.29,38.23,40.28Zm9.2,18.65c19.89-6.28,41-29.88,40.36-45-13.27,14-26.34,27.76-39.33,41.6-.64.67-.61,2-1,3.4Zm-10-1.16,1.35-.79c-.81-1.72-1.25-3.79-2.48-5.13-8.72-9.43-17.61-18.72-26.45-28.06-3.16-3.34-6.35-6.67-9.52-10,4.06,21.86,18.44,34.77,37.1,44Z"/><path class="cls-2" d="M216.32,252.92c3-6.66,6.28-12.69,8.53-19.09,7-20.1,5-40.12-1.68-59.86-7.45-22.12-19.48-41.77-34-59.84C178.9,101.33,167.7,89.28,156.8,77a8.37,8.37,0,0,1-2.51-6.12c.1-17.64.05-35.28.05-53.91,2.28,2.42,4,4.18,5.67,6,24.44,27.5,46.35,56.79,62.91,89.81,9.9,19.72,17.59,40.2,20,62.32C246.22,205,238.44,231.2,216.32,252.92Z"/><path class="cls-2" d="M84.45,253.57A88.07,88.07,0,0,1,62.31,221c-8.5-22.25-7.16-44.73-1.16-67.21,7.47-27.91,21-53,36.85-76.88a465,465,0,0,1,44-56.1c.82-.89,1.55-1.85,3-3.57.11,2.28.22,3.45.22,4.62,0,16.56.11,33.11-.09,49.66a9.81,9.81,0,0,1-2.6,6c-22,23-42.42,47.27-56.92,75.91-8.72,17.24-14.72,35.26-14.6,54.88A77.94,77.94,0,0,0,83.7,251.44c.33.51.64,1,1,1.57C84.67,253.06,84.59,253.15,84.45,253.57Z"/><path class="cls-2" d="M114.77,124.08l19.82,21.35c-5.64,7.84-11.37,15.32-16.58,23.14C108,183.66,99.85,199.65,96.67,217.75a68.07,68.07,0,0,0,4.7,40.63A67.49,67.49,0,0,1,85.1,234.15c-5.75-14.48-6.18-29.36-2.91-44.43C87.49,165.22,100,144.34,114.77,124.08Z"/><path class="cls-2" d="M199.05,258.35c1.52-5.44,3.53-10.85,4.52-16.44,3-16.92-1-32.87-7.68-48.3-7.32-16.77-17.66-31.64-29.08-45.82l-1.6-2L185.41,124c3.87,5.72,7.68,11,11.17,16.58,10.4,16.5,18.84,33.85,22.09,53.31,4,23.87-1.88,45-18.16,63A19.48,19.48,0,0,1,199.05,258.35Z"/><path class="cls-2" d="M150.08,214.07l-30-32.33,20.66-29.25c9.19,8.1,9.19,8.1,18.73.06,6.46,9.41,12.89,18.73,19.19,28.14a3.33,3.33,0,0,1-.56,3C168.94,193.76,159.69,203.7,150.08,214.07Z"/><path class="cls-2" d="M120.22,116.32,150,82.64l29.91,33.69-29.84,32.12Z"/><path class="cls-2" d="M153.53,269.09V225.8a4.37,4.37,0,0,1,.82-2.66c9.84-10.72,19.75-21.38,29.89-32.34,5.5,10.89,9.54,21.82,10.59,33.69a4.25,4.25,0,0,1-1.06,2.91q-19.52,20.7-39.18,41.3C154.49,268.84,154.21,268.86,153.53,269.09Z"/><path class="cls-2" d="M144.19,267.33c-13.28-14-25.77-27.12-38.2-40.3a3.62,3.62,0,0,1-.87-2.58c1.21-11.82,5.1-22.78,10.68-33.7,6.25,6.73,11.79,13.67,18.32,19.48,8,7.14,11.35,15.19,10.28,26C143.41,246.15,144.19,256.23,144.19,267.33Z"/><path class="cls-2" d="M153.38,286c.39-1.37.36-2.73,1-3.43,13-13.84,26.06-27.61,39.34-41.6C194.41,256.15,173.27,279.7,153.38,286Z"/><path class="cls-2" d="M143.35,284.82c-18.65-9.21-33-22.12-37.1-44,3.17,3.33,6.36,6.66,9.52,10,8.83,9.34,17.72,18.63,26.45,28.06,1.22,1.34,1.66,3.41,2.47,5.13Z"/></svg>