<svg id="Layer_1" data-name="Layer 1" xmlns="http://www.w3.org/2000/svg" viewBox="0 0 202 292.04"><defs><style>.cls-1{fill:#fff;}</style></defs><path class="cls-1" d="M49,188.52c.32-24.06,7.24-46.94,17.45-69,16.29-35.11,38.78-66.05,64.18-95,4.84-5.51,9.88-10.85,15-16.13,3.06-3.18,5.68-3.26,8.69-.11,35.86,37.61,67,78.44,86,127.41,6.88,17.73,11,36.11,10.69,55.26-.5,30.52-13.14,55.2-36.38,74.65-17.8,14.89-38.45,24.48-60.26,31.74a14.39,14.39,0,0,1-8.47,0c-24.14-8-46.84-18.83-65.67-36.47C59.41,241.47,49.1,217.43,49,188.52ZM215.05,253c21.71-21.3,29.33-47,26.14-76.3-2.37-21.71-9.92-41.8-19.62-61.15-16.25-32.38-37.75-61.11-61.72-88.1-1.62-1.81-3.33-3.54-5.56-5.91,0,18.28.05,35.58,0,52.88a8.27,8.27,0,0,0,2.46,6c10.7,12,21.68,23.87,31.75,36.43,14.21,17.72,26,37,33.32,58.69,6.52,19.37,8.56,39,1.65,58.73C221.22,240.52,218,246.43,215.05,253ZM85.7,253.6c.13-.39.21-.5.18-.55-.3-.52-.6-1-.92-1.54a76.66,76.66,0,0,1-12.5-42.27c-.07-19.24,5.75-36.93,14.31-53.84C101,127.31,121,103.52,142.6,80.93a9.53,9.53,0,0,0,2.56-5.87c.19-16.24.1-32.48.08-48.72,0-1.15-.1-2.3-.21-4.54-1.4,1.69-2.13,2.63-2.92,3.51A455.19,455.19,0,0,0,99,80.34c-15.54,23.45-28.82,48-36.15,75.42-5.9,22.05-7.2,44.11,1.14,65.93A86.14,86.14,0,0,0,85.7,253.6Zm29.74-127c-14.48,19.88-26.76,40.36-32,64.37-3.2,14.78-2.77,29.37,2.87,43.58a66.1,66.1,0,0,0,16,23.8,66.68,66.68,0,0,1-4.62-39.86c3.17-17.75,11.07-33.44,20.94-48.24,5.11-7.67,10.73-15,16.27-22.7Zm82.67,131.72c.42-.4,1-.85,1.44-1.37,16-17.72,21.72-38.41,17.81-61.83C214.18,176,205.9,159,195.7,142.8c-3.42-5.43-7.17-10.66-11-16.27l-19.83,21.36,1.57,1.94c11.2,13.91,21.35,28.5,28.53,44.95,6.6,15.14,10.46,30.79,7.53,47.39C201.57,247.65,199.6,253,198.11,258.29Zm-48-43.43c9.43-10.18,18.51-19.93,27.5-29.78a3.25,3.25,0,0,0,.54-3c-6.17-9.24-12.49-18.37-18.82-27.61-9.35,7.89-9.35,7.89-18.36-.06q-10.19,14.43-20.28,28.7ZM120.77,119c10,10.79,19.56,21.06,29.29,31.52L179.34,119,150,85.92Zm32.69,149.87c.66-.23.94-.24,1.07-.39q19.25-20.24,38.44-40.51a4.19,4.19,0,0,0,1-2.85c-1-11.65-5-22.37-10.38-33.05-10,10.75-19.67,21.2-29.32,31.72a4.15,4.15,0,0,0-.8,2.61C153.45,240.41,153.46,254.46,153.46,268.83Zm-9.17-1.73c0-10.88-.75-20.77.21-30.49,1.05-10.62-2.2-18.52-10.08-25.52-6.42-5.7-11.85-12.51-18-19.11C111,202.69,107.15,213.44,106,225a3.65,3.65,0,0,0,.87,2.54C119,240.5,131.26,253.37,144.29,267.1Zm9,18.3c19.52-6.16,40.26-29.32,39.6-44.18-13,13.73-25.84,27.23-38.59,40.81C153.67,282.72,153.69,284.05,153.31,285.4Zm-9.84-1.14,1.32-.77c-.79-1.7-1.22-3.73-2.43-5-8.56-9.26-17.27-18.38-25.94-27.53q-4.67-4.92-9.35-9.82C111.07,262.56,125.17,275.22,143.47,284.26Z" transform="translate(-49 -5.98)"/></svg>